<?xml version="1.0" encoding="UTF-8" standalone="no"?>
<!-- Created with Inkscape (http://www.inkscape.org/) -->

<svg
   xmlns:dc="http://purl.org/dc/elements/1.1/"
   xmlns:cc="http://creativecommons.org/ns#"
   xmlns:rdf="http://www.w3.org/1999/02/22-rdf-syntax-ns#"
   xmlns:svg="http://www.w3.org/2000/svg"
   xmlns="http://www.w3.org/2000/svg"
   xmlns:sodipodi="http://sodipodi.sourceforge.net/DTD/sodipodi-0.dtd"
   xmlns:inkscape="http://www.inkscape.org/namespaces/inkscape"
   version="1.0"
   width="645"
   height="585"
   id="svg2"
   inkscape:version="0.48.4 r9939"
   sodipodi:docname="mapadaseguranca_logo.svg">
  <metadata
     id="metadata3039">
    <rdf:RDF>
      <cc:Work
         rdf:about="">
        <dc:format>image/svg+xml</dc:format>
        <dc:type
           rdf:resource="http://purl.org/dc/dcmitype/StillImage" />
        <dc:title></dc:title>
      </cc:Work>
    </rdf:RDF>
  </metadata>
  <sodipodi:namedview
     pagecolor="#ffffff"
     bordercolor="#666666"
     borderopacity="1"
     objecttolerance="10"
     gridtolerance="10"
     guidetolerance="10"
     inkscape:pageopacity="0"
     inkscape:pageshadow="2"
     inkscape:window-width="639"
     inkscape:window-height="665"
     id="namedview3037"
     showgrid="false"
     inkscape:zoom="0.37948718"
     inkscape:cx="84.926045"
     inkscape:cy="297.81735"
     inkscape:window-x="546"
     inkscape:window-y="46"
     inkscape:window-maximized="0"
     inkscape:current-layer="svg2" />
  <defs
     id="defs4" />
  <g
     transform="translate(654.74249,-1402.1508)"
     id="g4138" />
  <g
     id="g3914"
     transform="matrix(0.2439154,0,0,0.2439154,951.37033,1040.2575)"
     style="fill:#3700ff;fill-opacity:1">
    <rect
       ry="0"
       y="-3596.2944"
       x="-2951.9795"
       height="477.01041"
       width="771.81903"
       id="rect3916"
       style="fill:#3700ff;fill-opacity:1;stroke:none" />
    <path
       transform="matrix(1.1099944,0,0,0.57647801,294.65331,-1533.8615)"
       inkscape:transform-center-y="-78.90539"
       inkscape:transform-center-x="0.097485416"
       d="m -2102.8378,-3544.2567 -474.4121,-0.1521 -474.4121,-0.1521 237.3377,-410.7769 237.3378,-410.7769 237.0744,410.929 z"
       inkscape:randomized="0"
       inkscape:rounded="0"
       inkscape:flatsided="false"
       sodipodi:arg2="1.5711169"
       sodipodi:arg1="0.52391935"
       sodipodi:r2="273.90198"
       sodipodi:r1="547.80396"
       sodipodi:cy="-3818.3108"
       sodipodi:cx="-2577.1621"
       sodipodi:sides="3"
       id="path3918"
       style="fill:#3700ff;fill-opacity:1;stroke:none"
       sodipodi:type="star" />
    <rect
       y="-3961.5054"
       x="-2862.0625"
       height="201.23877"
       width="111.79932"
       id="rect3920"
       style="fill:#3700ff;fill-opacity:1;stroke:none" />
  </g>
  <path
     style="fill:#ffffff;stroke:#ffffff;stroke-width:0.19884241px;stroke-linecap:butt;stroke-linejoin:miter;stroke-opacity:1"
     d="m 233.24414,243.58726 -20.43507,16.76725 3.66783,5.23977 16.24327,-12.05146 0.52397,13.09942 -4.19179,33.5345 10.21753,1.30993 4.19182,-31.96256 4.19182,32.74852 11.0035,-2.09589 -4.71579,-31.96257 0.52397,-14.67135 14.14738,12.05146 21.22104,-26.9848 0,26.72281 -9.95554,46.10994 13.88536,3.40585 10.47953,-45.58597 5.23978,0 8.6456,45.58597 13.88539,-1.83392 -8.12164,-50.56373 -0.52397,-19.91113 11.2655,20.1731 6.81168,3.66785 12.05148,-17.81521 3.14386,11.52749 -14.14738,50.03977 9.43157,3.14385 7.59767,-25.93684 6.02574,-0.26199 7.07368,25.93684 9.69357,-2.35789 -14.14738,-50.30176 2.88188,-10.74151 13.36139,18.86315 17.29124,-14.93333 1.57193,12.83743 -3.14386,15.19532 -8.64563,21.22105 6.54971,2.3579 9.1696,-22.26902 7.07368,0.26199 7.0737,22.26902 7.33565,-2.61989 -11.78946,-36.67837 1.83392,-11.78946 14.67135,14.14736 4.71578,-4.71579 -20.17309,-20.1731 -3.66785,0.262 -0.26198,-3.66785 c 6.19172,-2.40337 6.78471,-7.45878 6.41872,-12.96842 4.95698,0.45841 4.90476,1.30214 5.50175,2.09592 l -1.30996,9.43157 2.61989,9.95556 1.83392,-9.30059 c 1.81848,-2.60231 2.97276,-6.05859 2.3579,-11.78947 -0.69329,-3.1918 -1.2788,-6.46983 -5.37076,-6.9427 l -6.8117,4.19181 c -6.21683,-7.45255 -12.20902,-6.14438 -18.0772,0 -4.06927,-2.99072 -8.26045,-6.38202 -9.95554,-1.57192 -1.8823,3.83471 -1.58839,7.23416 -1.83392,10.74152 2.23475,4.97062 3.70306,9.78794 4.19181,14.40936 1.32417,-3.9833 2.80139,-7.91558 2.0959,-12.57543 l -0.78596,-7.0737 5.10877,-1.70291 c -0.79284,6.69089 0.92961,11.42546 6.41872,13.2304 l 0.13099,3.53685 -4.45381,-0.262 -15.19532,12.83743 -14.93332,-23.18596 -6.02574,-0.52397 0.262,-5.23978 4.19181,-2.88186 c 6.1052,0.10803 5.58294,-5.88118 3.01286,-13.75439 -0.28076,-4.97167 1.46597,-5.88832 4.3228,-4.5848 l 2.22691,4.32281 0.65497,13.49239 c 2.65655,-7.18931 9.25375,-13.19641 5.63275,-22.269 -3.02821,-5.9194 -4.97462,-13.5216 -14.01638,-10.08656 -3.3942,2.05007 -6.06581,4.64206 -6.68069,8.77661 -0.62617,1.73172 -1.95164,2.76417 -4.32281,2.75089 -5.51367,-0.66064 -10.65782,0.20956 -13.75439,9.56256 1.05369,6.1717 3.02203,7.77023 5.10878,8.77661 2.05223,3.70119 4.10448,4.80326 6.15672,5.76375 l -0.262,5.76374 -5.63275,0.131 -3.53683,2.88186 -9.43159,14.93334 -18.99414,-33.53451 -8.25264,-0.39297 0,-4.97778 c 4.14155,-2.17621 5.09753,-5.82268 4.71579,-10.08656 l 4.06082,-0.65497 c -3.30315,-7.55293 -6.91127,-14.15277 -12.96842,-13.0994 -10.25536,2.56487 -15.99043,6.48582 -12.31344,13.2304 -0.58845,5.82823 2.00294,8.47659 4.84679,10.87252 l 0.13097,4.84679 -9.43157,0.26197 -25.41287,36.1544 -13.3614,-12.05146 -5.23975,-0.26199 0,-4.45382 c 6.89476,-3.66925 9.2064,-8.8662 4.58479,-16.37425 l 2.09589,-3.40585 -5.89472,-4.71579 -4.32281,1.04794 -0.131,-2.22689 -2.48889,2.22689 -1.83392,-3.40583 0.26199,5.23976 -4.58479,-0.131 c -2.48135,3.94563 -2.86498,7.80424 -2.22689,12.70644 0.89391,6.20281 4.04171,7.89785 7.33565,9.30058 l -0.26197,4.45381 -4.97779,0 z"
     id="path3922"
     inkscape:connector-curvature="0"
     sodipodi:nodetypes="cccccccccccccccccccccccccccccccccccccccccccccccccccccccccccccccccccccccccccccccccccccccccccccccccccccccccccccccccccccc" />
  <g
     id="g3924"
     transform="matrix(0.17193139,0,0,0.17193139,795.67691,664.07457)"
     style="fill:#3700ff;fill-opacity:1">
    <rect
       ry="48.446369"
       y="-2191.3496"
       x="-3454.5989"
       height="96.892738"
       width="1404.9446"
       id="rect3926"
       style="fill:#3700ff;fill-opacity:1;stroke:none" />
    <rect
       style="fill:#3700ff;fill-opacity:1;stroke:none"
       id="rect3928"
       width="1404.9446"
       height="96.892738"
       x="-3454.5989"
       y="-1975.2042"
       ry="48.446369" />
    <rect
       transform="matrix(0,1,-1,0,0,0)"
       ry="48.446369"
       y="3318.5764"
       x="-2327.3718"
       height="96.892738"
       width="495.64343"
       id="rect3930"
       style="fill:#3700ff;fill-opacity:1;stroke:none" />
    <rect
       style="fill:#3700ff;fill-opacity:1;stroke:none"
       id="rect3932"
       width="495.64343"
       height="96.892738"
       x="-2327.3718"
       y="3143.4241"
       ry="48.446369"
       transform="matrix(0,1,-1,0,0,0)" />
    <rect
       transform="matrix(0,1,-1,0,0,0)"
       ry="48.446369"
       y="2971.9985"
       x="-2327.3718"
       height="96.892738"
       width="495.64343"
       id="rect3934"
       style="fill:#3700ff;fill-opacity:1;stroke:none" />
    <rect
       style="fill:#3700ff;fill-opacity:1;stroke:none"
       id="rect3936"
       width="495.64343"
       height="96.892738"
       x="-2327.3718"
       y="2793.1196"
       ry="48.446369"
       transform="matrix(0,1,-1,0,0,0)" />
    <rect
       transform="matrix(0,1,-1,0,0,0)"
       ry="48.446369"
       y="2614.2407"
       x="-2327.3718"
       height="96.892738"
       width="495.64343"
       id="rect3938"
       style="fill:#3700ff;fill-opacity:1;stroke:none" />
    <rect
       style="fill:#3700ff;fill-opacity:1;stroke:none"
       id="rect3940"
       width="495.64343"
       height="96.892738"
       x="-2327.3718"
       y="2440.8152"
       ry="48.446369"
       transform="matrix(0,1,-1,0,0,0)" />
    <rect
       transform="matrix(0,1,-1,0,0,0)"
       ry="48.446369"
       y="2261.9363"
       x="-2327.3718"
       height="96.892738"
       width="495.64343"
       id="rect3942"
       style="fill:#3700ff;fill-opacity:1;stroke:none" />
    <rect
       style="fill:#3700ff;fill-opacity:1;stroke:none"
       id="rect3944"
       width="495.64343"
       height="96.892738"
       x="-2327.3718"
       y="2090.5107"
       ry="48.446369"
       transform="matrix(0,1,-1,0,0,0)" />
  </g>
  <path
     d="m 264.95772,64.91971 c -1.38438,-1.551329 -4.8411,-4.575682 -7.6816,-6.720774 -8.41619,-6.355739 -9.56164,-7.275544 -12.97878,-10.422066 -6.29973,-5.800809 -8.97513,-11.628721 -8.96597,-19.530936 0.004,-3.857523 0.26743,-5.343711 1.3477,-7.617533 1.83277,-3.857722 4.53251,-6.724314 7.98416,-8.477547 2.44468,-1.241731 3.65038,-1.793419 7.73284,-1.815988 4.27052,-0.0236 5.16952,0.474319 7.6816,1.854385 3.05764,1.679781 6.20479,5.269741 6.85535,7.819875 l 0.4018,1.57505 0.99089,-2.169211 c 5.59942,-12.2581371 23.47639,-12.0747447 29.69767,0.304666 1.97357,3.927118 2.19025,12.312461 0.4402,17.035882 -2.28285,6.16153 -6.57061,10.858963 -16.48247,18.057296 -6.50035,4.720797 -13.85727,11.863475 -14.3694,12.866694 -0.5945,1.164521 -0.0284,0.182478 -2.65399,-2.759793 z"
     id="path3946"
     style="fill:#3700ff;fill-opacity:1"
     inkscape:connector-curvature="0" />
  <g
     transform="matrix(0.20576064,0,0,0.20576064,888.77932,827.07289)"
     id="g3948"
     style="fill:#3700ff;fill-opacity:1">
    <rect
       style="fill:#3700ff;fill-opacity:1;stroke:none"
       id="rect3950"
       width="1404.9446"
       height="96.892738"
       x="-3454.5989"
       y="-2191.3496"
       ry="48.446369" />
    <rect
       ry="48.446369"
       y="-1975.2042"
       x="-3454.5989"
       height="96.892738"
       width="1404.9446"
       id="rect3952"
       style="fill:#3700ff;fill-opacity:1;stroke:none" />
    <rect
       style="fill:#3700ff;fill-opacity:1;stroke:none"
       id="rect3954"
       width="495.64343"
       height="96.892738"
       x="-2327.3718"
       y="3318.5764"
       ry="48.446369"
       transform="matrix(0,1,-1,0,0,0)" />
    <rect
       transform="matrix(0,1,-1,0,0,0)"
       ry="48.446369"
       y="3143.4241"
       x="-2327.3718"
       height="96.892738"
       width="495.64343"
       id="rect3956"
       style="fill:#3700ff;fill-opacity:1;stroke:none" />
    <rect
       style="fill:#3700ff;fill-opacity:1;stroke:none"
       id="rect3958"
       width="495.64343"
       height="96.892738"
       x="-2327.3718"
       y="2971.9985"
       ry="48.446369"
       transform="matrix(0,1,-1,0,0,0)" />
    <rect
       transform="matrix(0,1,-1,0,0,0)"
       ry="48.446369"
       y="2793.1196"
       x="-2327.3718"
       height="96.892738"
       width="495.64343"
       id="rect3960"
       style="fill:#3700ff;fill-opacity:1;stroke:none" />
    <rect
       style="fill:#3700ff;fill-opacity:1;stroke:none"
       id="rect3962"
       width="495.64343"
       height="96.892738"
       x="-2327.3718"
       y="2614.2407"
       ry="48.446369"
       transform="matrix(0,1,-1,0,0,0)" />
    <rect
       transform="matrix(0,1,-1,0,0,0)"
       ry="48.446369"
       y="2440.8152"
       x="-2327.3718"
       height="96.892738"
       width="495.64343"
       id="rect3964"
       style="fill:#3700ff;fill-opacity:1;stroke:none" />
    <rect
       style="fill:#3700ff;fill-opacity:1;stroke:none"
       id="rect3966"
       width="495.64343"
       height="96.892738"
       x="-2327.3718"
       y="2261.9363"
       ry="48.446369"
       transform="matrix(0,1,-1,0,0,0)" />
    <rect
       transform="matrix(0,1,-1,0,0,0)"
       ry="48.446369"
       y="2090.5107"
       x="-2327.3718"
       height="96.892738"
       width="495.64343"
       id="rect3968"
       style="fill:#3700ff;fill-opacity:1;stroke:none" />
  </g>
  <g
     id="g3970"
     transform="matrix(0.25650453,0,0,0.25650453,1028.4329,1044.5194)"
     style="fill:#3700ff;fill-opacity:1">
    <rect
       ry="48.446369"
       y="-2191.3496"
       x="-3454.5989"
       height="96.892738"
       width="1404.9446"
       id="rect3972"
       style="fill:#3700ff;fill-opacity:1;stroke:none" />
    <rect
       style="fill:#3700ff;fill-opacity:1;stroke:none"
       id="rect3974"
       width="1404.9446"
       height="96.892738"
       x="-3454.5989"
       y="-1975.2042"
       ry="48.446369" />
    <rect
       transform="matrix(0,1,-1,0,0,0)"
       ry="48.446369"
       y="3318.5764"
       x="-2327.3718"
       height="96.892738"
       width="495.64343"
       id="rect3976"
       style="fill:#3700ff;fill-opacity:1;stroke:none" />
    <rect
       style="fill:#3700ff;fill-opacity:1;stroke:none"
       id="rect3978"
       width="495.64343"
       height="96.892738"
       x="-2327.3718"
       y="3143.4241"
       ry="48.446369"
       transform="matrix(0,1,-1,0,0,0)" />
    <rect
       transform="matrix(0,1,-1,0,0,0)"
       ry="48.446369"
       y="2971.9985"
       x="-2327.3718"
       height="96.892738"
       width="495.64343"
       id="rect3980"
       style="fill:#3700ff;fill-opacity:1;stroke:none" />
    <rect
       style="fill:#3700ff;fill-opacity:1;stroke:none"
       id="rect3982"
       width="495.64343"
       height="96.892738"
       x="-2327.3718"
       y="2793.1196"
       ry="48.446369"
       transform="matrix(0,1,-1,0,0,0)" />
    <rect
       transform="matrix(0,1,-1,0,0,0)"
       ry="48.446369"
       y="2614.2407"
       x="-2327.3718"
       height="96.892738"
       width="495.64343"
       id="rect3984"
       style="fill:#3700ff;fill-opacity:1;stroke:none" />
    <rect
       style="fill:#3700ff;fill-opacity:1;stroke:none"
       id="rect3986"
       width="495.64343"
       height="96.892738"
       x="-2327.3718"
       y="2440.8152"
       ry="48.446369"
       transform="matrix(0,1,-1,0,0,0)" />
    <rect
       transform="matrix(0,1,-1,0,0,0)"
       ry="48.446369"
       y="2261.9363"
       x="-2327.3718"
       height="96.892738"
       width="495.64343"
       id="rect3988"
       style="fill:#3700ff;fill-opacity:1;stroke:none" />
    <rect
       style="fill:#3700ff;fill-opacity:1;stroke:none"
       id="rect3990"
       width="495.64343"
       height="96.892738"
       x="-2327.3718"
       y="2090.5107"
       ry="48.446369"
       transform="matrix(0,1,-1,0,0,0)" />
  </g>
  <path
     style="fill:#3700ff;fill-opacity:1;stroke:none"
     d="m 379.61057,242.50615 c -4.07644,-6.44346 -8.78508,-11.7531 -10.46366,-11.79919 -1.67857,-0.0461 -1.06932,-1.59142 1.3539,-3.43406 2.42321,-1.84264 4.90152,-7.43753 5.50733,-12.43309 l 1.10149,-9.08283 0.42172,9.88175 c 0.48995,11.48035 3.55719,12.71046 7.90415,3.16993 4.28198,-9.39793 3.72117,-17.30793 -1.72937,-24.39162 -3.91978,-5.09428 -5.75819,-5.65604 -11.44012,-3.49578 -3.72341,1.41563 -7.48725,4.44344 -8.36409,6.72845 -0.87684,2.28501 -4.02851,4.15456 -7.00372,4.15456 -3.22609,0 -6.63216,2.68352 -8.43876,6.64858 -2.51551,5.52094 -2.17073,7.86735 2.03284,13.83446 l 5.06214,7.18588 -8.38329,8.61367 -8.38329,8.61366 -8.38067,-15.72376 c -4.60937,-8.64806 -10.02028,-16.08164 -12.02424,-16.51907 -3.06482,-0.66898 -3.03001,-1.97116 0.21914,-8.19814 3.07076,-5.88508 3.21442,-8.44091 0.7007,-12.46601 -4.24503,-6.79738 -8.60257,-8.14893 -16.54147,-5.13057 -8.443,3.21003 -10.38726,8.38587 -6.90378,18.3786 2.20643,6.32935 2.03035,7.93838 -0.86869,7.93838 -1.99981,0 -9.47451,8.28697 -16.61044,18.4155 -12.76556,18.11906 -13.05074,18.33115 -17.71639,13.17568 -2.60808,-2.88191 -6.3369,-5.23983 -8.28626,-5.23983 -4.40772,0 -4.68072,-4.45227 -0.36128,-5.89208 1.75066,-0.58356 3.32586,-5.36605 3.50044,-10.62778 0.27493,-8.28582 -0.74548,-10.00704 -7.62094,-12.85494 -6.12225,-2.53593 -8.17902,-2.56621 -8.9903,-0.13237 -0.57857,1.7357 -2.13893,3.15582 -3.46748,3.15582 -1.32855,0 -2.41554,-10.61571 -2.41554,-23.59048 l 0,-23.59047 -16.19427,-0.78453 -16.19427,-0.78452 26.73481,-23.65718 26.73481,-23.65717 0,-21.798907 0,-21.798905 13.01661,0 c 12.94097,0 13.02135,0.05313 13.83446,9.144519 l 0.81785,9.144523 21.95958,-19.807882 21.95959,-19.807882 24.15528,21.97607 c 13.2854,12.086837 41.22625,37.340584 62.09077,56.119444 l 37.9355,34.14337 -16.19563,0.78452 -16.19563,0.78453 0,25.94685 c 0,25.10733 -0.19184,25.95162 -5.92905,26.09451 -21.90711,0.5456 -21.73987,0.41765 -21.73987,16.63131 0,8.19714 -0.6275,15.54423 -1.39445,16.32688 -0.76694,0.78265 -4.72971,-3.84893 -8.80616,-10.2924 z"
     id="path4931"
     inkscape:connector-curvature="0" />
</svg>
