<?xml version="1.0" encoding="UTF-8" standalone="no"?>
<!-- Created with Inkscape (http://www.inkscape.org/) -->

<svg
   xmlns:dc="http://purl.org/dc/elements/1.1/"
   xmlns:cc="http://creativecommons.org/ns#"
   xmlns:rdf="http://www.w3.org/1999/02/22-rdf-syntax-ns#"
   xmlns:svg="http://www.w3.org/2000/svg"
   xmlns="http://www.w3.org/2000/svg"
   xmlns:sodipodi="http://sodipodi.sourceforge.net/DTD/sodipodi-0.dtd"
   xmlns:inkscape="http://www.inkscape.org/namespaces/inkscape"
   width="718.35919"
   height="1090.9258"
   id="svg3415"
   version="1.1"
   inkscape:version="0.48.4 r9939"
   sodipodi:docname="violenciaperto-circulospessoais.svg">
  <defs
     id="defs3417" />
  <sodipodi:namedview
     id="base"
     pagecolor="#ffffff"
     bordercolor="#666666"
     borderopacity="1.0"
     inkscape:pageopacity="0.0"
     inkscape:pageshadow="2"
     inkscape:zoom="0.35"
     inkscape:cx="736.16158"
     inkscape:cy="623.23116"
     inkscape:document-units="px"
     inkscape:current-layer="layer1"
     showgrid="false"
     fit-margin-top="0"
     fit-margin-left="0"
     fit-margin-right="0"
     fit-margin-bottom="0"
     inkscape:window-width="1301"
     inkscape:window-height="744"
     inkscape:window-x="65"
     inkscape:window-y="24"
     inkscape:window-maximized="1" />
  <metadata
     id="metadata3420">
    <rdf:RDF>
      <cc:Work
         rdf:about="">
        <dc:format>image/svg+xml</dc:format>
        <dc:type
           rdf:resource="http://purl.org/dc/dcmitype/StillImage" />
        <dc:title />
      </cc:Work>
    </rdf:RDF>
  </metadata>
  <g
     inkscape:label="Layer 1"
     inkscape:groupmode="layer"
     id="layer1"
     transform="translate(-12.868609,19.281785)">
    <g
       transform="matrix(0.27281185,0,0,0.27281185,1070.2743,1132.6634)"
       id="g3255"
       style="fill:#000080">
      <rect
         style="fill:#000080;fill-opacity:1;stroke:none"
         id="rect3257"
         width="771.81903"
         height="477.01041"
         x="-2951.9795"
         y="-3596.2944"
         ry="0" />
      <path
         sodipodi:type="star"
         style="fill:#000080;fill-opacity:1;stroke:none"
         id="path3259"
         sodipodi:sides="3"
         sodipodi:cx="-2577.1621"
         sodipodi:cy="-3818.3108"
         sodipodi:r1="547.80396"
         sodipodi:r2="273.90198"
         sodipodi:arg1="0.52391935"
         sodipodi:arg2="1.5711169"
         inkscape:flatsided="false"
         inkscape:rounded="0"
         inkscape:randomized="0"
         d="m -2102.8378,-3544.2567 -474.4121,-0.1521 -474.4121,-0.1521 237.3377,-410.7769 237.3378,-410.7769 237.0744,410.929 z"
         inkscape:transform-center-x="0.097485416"
         inkscape:transform-center-y="-78.90539"
         transform="matrix(1.1099944,0,0,0.57647801,294.65331,-1533.8615)" />
      <rect
         style="fill:#000080;fill-opacity:1;stroke:none"
         id="rect3261"
         width="111.79932"
         height="201.23877"
         x="-2862.0625"
         y="-3961.5054" />
    </g>
    <path
       style="fill:#ffffff;stroke:#ffffff;stroke-width:0.22239909px;stroke-linecap:butt;stroke-linejoin:miter;stroke-opacity:1"
       d="M 339.53125 198.9375 C 339.12865 198.94608 338.73592 198.98887 338.3125 199.0625 C 326.84204 201.93123 320.41865 206.33123 324.53125 213.875 C 323.87317 220.39352 326.75675 223.35135 329.9375 226.03125 L 330.09375 231.4375 L 319.5625 231.75 L 291.125 272.1875 L 276.1875 258.6875 L 270.3125 258.40625 L 270.3125 253.4375 C 278.02397 249.33354 280.60672 243.49132 275.4375 235.09375 L 277.78125 231.3125 L 271.1875 226.03125 L 266.375 227.1875 L 266.21875 224.71875 L 263.4375 227.1875 L 261.375 223.375 L 261.6875 229.25 L 256.5625 229.09375 C 253.78718 233.50682 253.34882 237.82947 254.0625 243.3125 C 255.06241 250.25017 258.56573 252.14983 262.25 253.71875 L 261.96875 258.6875 L 256.40625 258.6875 L 254.21875 260.90625 L 231.34375 279.65625 L 235.4375 285.5 L 253.625 272.03125 L 254.21875 286.6875 L 249.5 324.1875 L 260.9375 325.65625 L 265.625 289.90625 L 270.3125 326.53125 L 282.625 324.1875 L 277.34375 288.4375 L 277.9375 272.03125 L 293.75 285.5 L 317.5 255.3125 L 317.5 285.21875 L 306.375 336.78125 L 321.90625 340.59375 L 333.625 289.625 L 339.46875 289.625 L 349.15625 340.59375 L 364.6875 338.53125 L 355.59375 282 L 355 259.71875 L 367.59375 282.28125 L 375.21875 286.375 L 388.6875 266.46875 L 392.21875 279.34375 L 376.40625 335.3125 L 386.9375 338.84375 L 395.4375 309.84375 L 402.1875 309.53125 L 410.09375 338.53125 L 420.9375 335.90625 L 405.125 279.65625 L 408.34375 267.625 L 423.28125 288.71875 L 442.625 272.03125 L 444.375 286.375 L 440.875 303.375 L 431.1875 327.125 L 438.53125 329.75 L 448.78125 304.84375 L 456.6875 305.15625 L 464.59375 330.0625 L 472.8125 327.125 L 459.625 286.09375 L 461.65625 272.90625 L 478.0625 288.71875 L 483.34375 283.46875 L 460.78125 260.90625 L 456.6875 261.1875 L 456.40625 257.09375 C 463.33154 254.40566 463.97171 248.7562 463.5625 242.59375 C 469.10669 243.1066 469.05089 244.04968 469.71875 244.9375 L 468.25 255.46875 L 471.1875 266.59375 L 473.25 256.21875 C 475.28406 253.30815 476.56288 249.44101 475.875 243.03125 C 475.09972 239.4613 474.45175 235.77887 469.875 235.25 L 462.25 239.9375 C 455.29647 231.60198 448.59469 233.06515 442.03125 239.9375 C 437.48007 236.59239 432.8022 232.80745 430.90625 238.1875 C 428.80102 242.47647 429.11841 246.26463 428.84375 250.1875 C 431.34329 255.74699 432.98459 261.14359 433.53125 266.3125 C 435.01221 261.85731 436.66407 257.4619 435.875 252.25 L 435 244.34375 L 440.71875 242.4375 C 439.83205 249.92114 441.7667 255.19999 447.90625 257.21875 L 448.03125 261.1875 L 443.0625 260.90625 L 426.0625 275.25 L 409.375 249.3125 L 402.625 248.71875 L 402.90625 242.875 L 407.59375 239.65625 C 414.4223 239.77701 413.84348 233.08714 410.96875 224.28125 C 410.65472 218.7206 412.61729 217.66695 415.8125 219.125 L 418.3125 223.96875 L 419.03125 239.0625 C 422.00273 231.02166 429.39386 224.30366 425.34375 214.15625 C 421.95684 207.53566 419.76918 199.03305 409.65625 202.875 C 405.8599 205.16793 402.87538 208.06315 402.1875 212.6875 C 401.48716 214.62437 399.99586 215.79615 397.34375 215.78125 C 391.17707 215.04222 385.43217 216.00776 381.96875 226.46875 C 383.14724 233.37157 385.35342 235.15568 387.6875 236.28125 C 389.98288 240.42098 392.26712 241.64456 394.5625 242.71875 L 394.28125 249.1875 L 387.96875 249.3125 L 384 252.53125 L 373.46875 269.25 L 352.21875 231.75 L 343 231.3125 L 343 225.71875 C 347.63213 223.28482 348.67701 219.2064 348.25 214.4375 L 352.8125 213.71875 C 349.34892 205.79891 345.57032 198.80873 339.53125 198.9375 z "
       transform="translate(12.868609,-19.281785)"
       id="path3263" />
    <g
       transform="matrix(0.19229995,0,0,0.19229995,896.13599,711.91437)"
       id="g3265"
       style="fill:#000080">
      <rect
         style="fill:#000080;fill-opacity:1;stroke:none"
         id="rect3267"
         width="1404.9446"
         height="96.892738"
         x="-3454.5989"
         y="-2191.3496"
         ry="48.446369" />
      <rect
         ry="48.446369"
         y="-1975.2042"
         x="-3454.5989"
         height="96.892738"
         width="1404.9446"
         id="rect3269"
         style="fill:#000080;fill-opacity:1;stroke:none" />
      <rect
         style="fill:#000080;fill-opacity:1;stroke:none"
         id="rect3271"
         width="495.64343"
         height="96.892738"
         x="-2327.3718"
         y="3318.5764"
         ry="48.446369"
         transform="matrix(0,1,-1,0,0,0)" />
      <rect
         transform="matrix(0,1,-1,0,0,0)"
         ry="48.446369"
         y="3143.4241"
         x="-2327.3718"
         height="96.892738"
         width="495.64343"
         id="rect3273"
         style="fill:#000080;fill-opacity:1;stroke:none" />
      <rect
         style="fill:#000080;fill-opacity:1;stroke:none"
         id="rect3275"
         width="495.64343"
         height="96.892738"
         x="-2327.3718"
         y="2971.9985"
         ry="48.446369"
         transform="matrix(0,1,-1,0,0,0)" />
      <rect
         transform="matrix(0,1,-1,0,0,0)"
         ry="48.446369"
         y="2793.1196"
         x="-2327.3718"
         height="96.892738"
         width="495.64343"
         id="rect3277"
         style="fill:#000080;fill-opacity:1;stroke:none" />
      <rect
         style="fill:#000080;fill-opacity:1;stroke:none"
         id="rect3279"
         width="495.64343"
         height="96.892738"
         x="-2327.3718"
         y="2614.2407"
         ry="48.446369"
         transform="matrix(0,1,-1,0,0,0)" />
      <rect
         transform="matrix(0,1,-1,0,0,0)"
         ry="48.446369"
         y="2440.8152"
         x="-2327.3718"
         height="96.892738"
         width="495.64343"
         id="rect3281"
         style="fill:#000080;fill-opacity:1;stroke:none" />
      <rect
         style="fill:#000080;fill-opacity:1;stroke:none"
         id="rect3283"
         width="495.64343"
         height="96.892738"
         x="-2327.3718"
         y="2261.9363"
         ry="48.446369"
         transform="matrix(0,1,-1,0,0,0)" />
      <rect
         transform="matrix(0,1,-1,0,0,0)"
         ry="48.446369"
         y="2090.5107"
         x="-2327.3718"
         height="96.892738"
         width="495.64343"
         id="rect3285"
         style="fill:#000080;fill-opacity:1;stroke:none" />
    </g>
    <path
       inkscape:connector-curvature="0"
       style="fill:#000080"
       id="path3287"
       d="m 302.54304,41.778224 c -1.54857,-1.735157 -5.41476,-5.117847 -8.59173,-7.517089 -9.41326,-7.108764 -10.69428,-8.13736 -14.51643,-11.656826 -7.04605,-6.487826 -10.03843,-13.0063432 -10.02797,-21.84470547 0.004,-4.31454233 0.2989,-5.97675313 1.50719,-8.51988673 2.04986,-4.3147648 5.06959,-7.5208698 8.92999,-9.4819848 2.7344,-1.38866 4.08303,-2.005818 8.6491,-2.030949 4.77647,-0.02647 5.78194,0.530422 8.5915,2.073872 3.42006,1.878827 6.93997,5.894243 7.66766,8.7462886 l 0.44924,1.7618456 1.10844,-2.4263741 c 6.26276,-13.7102371 26.25755,-13.5051851 33.21575,0.3409379 2.20753,4.3921596 2.44973,13.7709516 0.49239,19.054042 -2.55314,6.891481 -7.34895,12.145437 -18.4351,20.196506 -7.27045,5.279977 -15.499,13.268997 -16.07167,14.391 -0.66498,1.30237 -0.0318,0.204163 -2.96836,-3.086677 z" />
    <g
       id="g3593"
       transform="translate(280.61868,176.67598)"
       style="fill:#000080">
      <rect
         transform="matrix(0,1,-1,0,0,0)"
         ry="11.149299"
         y="-35.682808"
         x="376.24207"
         height="22.298599"
         width="114.06586"
         id="rect3299"
         style="fill:#000080;fill-opacity:1;stroke:none" />
      <rect
         ry="11.149299"
         y="407.54584"
         x="-155.08435"
         height="22.298599"
         width="482.73569"
         id="rect3291"
         style="fill:#000080;fill-opacity:1;stroke:none" />
      <rect
         style="fill:#000080;fill-opacity:1;stroke:none"
         id="rect3293"
         width="482.73569"
         height="22.298599"
         x="-155.08435"
         y="457.28885"
         ry="11.149299" />
      <rect
         transform="matrix(0,1,-1,0,0,0)"
         ry="11.149299"
         y="44.07756"
         x="376.24207"
         height="22.298599"
         width="114.06586"
         id="rect3295"
         style="fill:#000080;fill-opacity:1;stroke:none" />
      <rect
         style="fill:#000080;fill-opacity:1;stroke:none"
         id="rect3297"
         width="114.06586"
         height="22.298599"
         x="376.24207"
         y="3.7685413"
         ry="11.149299"
         transform="matrix(0,1,-1,0,0,0)" />
      <rect
         style="fill:#000080;fill-opacity:1;stroke:none"
         id="rect3301"
         width="114.06586"
         height="22.298599"
         x="376.24207"
         y="-76.849449"
         ry="11.149299"
         transform="matrix(0,1,-1,0,0,0)" />
      <rect
         transform="matrix(0,1,-1,0,0,0)"
         ry="11.149299"
         y="-118.01608"
         x="376.24207"
         height="22.298599"
         width="114.06586"
         id="rect3303"
         style="fill:#000080;fill-opacity:1;stroke:none" />
      <rect
         style="fill:#000080;fill-opacity:1;stroke:none"
         id="rect3305"
         width="114.06586"
         height="22.298599"
         x="376.24207"
         y="-157.9277"
         ry="11.149299"
         transform="matrix(0,1,-1,0,0,0)" />
      <rect
         transform="matrix(0,1,-1,0,0,0)"
         ry="11.149299"
         y="-199.09435"
         x="376.24207"
         height="22.298599"
         width="114.06586"
         id="rect3307"
         style="fill:#000080;fill-opacity:1;stroke:none" />
      <rect
         style="fill:#000080;fill-opacity:1;stroke:none"
         id="rect3309"
         width="114.06586"
         height="22.298599"
         x="376.24207"
         y="-238.54575"
         ry="11.149299"
         transform="matrix(0,1,-1,0,0,0)" />
      <path
         style="fill:#000080;fill-opacity:1;stroke:#ffffff;stroke-width:0.22239908999999999px;stroke-linecap:butt;stroke-linejoin:miter;stroke-opacity:1"
         d="m 317.39433,289.20979 0,-16.77725 -20.77345,-36.66805 -9.22956,-0.4448 0,-5.56691 c 4.6321,-2.43394 5.70202,-6.51091 5.27502,-11.27982 l 4.53834,-0.72973 c -3.69452,-8.44783 -7.72988,-15.83553 -14.5046,-14.65748 -11.47046,2.8687 -17.88049,7.25964 -13.76789,14.80341 -0.65808,6.51852 2.24021,9.47561 5.42098,12.15552 l 0.14594,5.42097 -10.55006,0.29884 -28.42538,40.43496 -14.94244,-13.48295 -5.85881,-0.29192 0,-4.97618 c 7.71144,-4.10395 10.29827,-9.92253 5.12905,-18.32012 l 2.34215,-3.80859 -6.59553,-5.27501 -4.83022,1.17455 -0.1529,-2.48811 -2.77999,2.48811 -2.05025,-3.80858 0.29192,5.85881 -5.1291,-0.14596 c -2.7753,4.41309 -3.20177,8.72968 -2.48807,14.2127 0.99991,6.93768 4.5167,8.83521 8.20097,10.40412 l -0.29192,4.97618 -5.56692,0 -2.19619,2.20313 -22.85845,18.75103 4.10047,5.85881 18.17418,-13.47598 0.5838,14.65054 -4.69124,37.509 11.43271,1.46644 4.68428,-35.75066 4.69125,36.62635 12.30838,-2.34213 -5.27501,-35.75065 0.58379,-16.40889 15.82508,13.47598 23.73416,-30.17675 0,29.88487 -11.13387,51.57573 15.52625,3.80859 11.7246,-50.98499 5.85881,0 9.66742,50.98499 15.5332,-2.05026 -9.08362,-56.55884 -0.5838,-22.26771 12.60028,22.56655 5.38624,2.89814 z"
         id="path3361"
         inkscape:connector-curvature="0" />
      <path
         sodipodi:nodetypes="cccccccccccccccccccccccccccccccccccccccccccccccccccccccccccccccccccccccccccccccccccccccccccccccccccccccccccccccccccccc"
         inkscape:connector-curvature="0"
         id="path3333"
         d="m -13.546298,323.52257 -22.856088,18.75365 4.102351,5.86053 18.167715,-13.47919 0.586022,14.6513 -4.688395,37.50729 11.4279768,1.46512 4.6883952,-35.74914 4.6883953,36.62822 12.3071207,-2.3442 -5.2744167,-35.74914 0.5860217,-16.40945 15.82325,13.47919 23.735098,-30.18167 0,29.88863 -11.134855,51.57255 15.530351,3.80934 11.720877,-50.9865 5.860661,0 9.669912,50.9865 15.530351,-2.05119 -9.083891,-56.55397 -0.586021,-22.26998 12.60002,22.56299 7.618727,4.10237 13.47916,-19.92575 3.51635,12.89314 -15.82347,55.96793 10.54906,3.51631 8.49764,-29.00956 6.73959,-0.29303 7.91184,29.00955 10.84196,-2.63723 -15.82347,-56.26096 3.22323,-12.01404 14.94433,21.09784 19.33982,-16.70246 1.75807,14.35826 -3.51636,16.9955 -9.66991,23.73509 7.32583,2.63724 10.25571,-24.90721 7.91185,0.29303 7.91162,24.90721 8.20475,-2.93027 -13.18627,-41.02362 2.05119,-13.18615 16.4095,15.82338 5.27441,-5.27446 -22.56283,-22.56299 -4.10237,0.29303 -0.29313,-4.10237 c 6.92529,-2.68809 7.58848,-8.34234 7.17927,-14.5048 5.54419,0.51285 5.4857,1.45649 6.15356,2.34431 l -1.46516,10.54885 2.9301,11.13499 2.05119,-10.40243 c 2.03406,-2.9106 3.32509,-6.77627 2.63721,-13.18604 -0.77528,-3.56995 -1.43025,-7.23642 -6.007,-7.76528 l -7.6185,4.68839 c -6.95353,-8.33552 -13.65553,-6.87235 -20.21897,0 -4.55118,-3.3451 -9.23891,-7.13812 -11.13486,-1.75806 -2.10523,4.28896 -1.77652,8.0911 -2.05118,12.01397 2.49954,5.55949 4.14173,10.94751 4.68839,16.11642 1.48096,-4.45519 3.13338,-8.85333 2.34431,-14.06523 l -0.87914,-7.9116 5.71387,-1.90485 c -0.8867,7.48364 1.03972,12.77912 7.17927,14.79788 l 0.14656,3.95585 -4.98152,-0.29303 -16.99551,14.35826 -16.7024,-25.93282 -6.73958,-0.58602 0.2929,-5.86044 4.68839,-3.22323 c 6.82855,0.12076 6.24453,-6.57812 3.3698,-15.38401 -0.31403,-5.56065 1.63974,-6.58591 4.83495,-5.12786 l 2.49087,4.83496 0.73236,15.09067 c 2.97148,-8.04084 10.35023,-14.75974 6.30012,-24.90714 -3.38691,-6.6206 -5.56398,-15.12337 -15.67691,-11.28142 -3.79635,2.29293 -6.78428,5.19191 -7.47216,9.81625 -0.70034,1.93687 -2.18285,3.09179 -4.83496,3.07689 -6.16668,-0.73903 -11.92037,0.23441 -15.38379,10.6954 1.17849,6.90282 3.38002,8.69069 5.7141,9.81625 2.29538,4.13973 4.59076,5.37249 6.88614,6.44668 l -0.29312,6.44646 -6.30012,0.14656 -3.95581,3.22332 -10.54884,16.70248 -21.244447,-37.50734 -9.230229,-0.43946 0,-5.56754 c 4.632128,-2.43393 5.701423,-6.51251 5.274417,-11.28141 l 4.541834,-0.73259 C 81.362291,267.89765 77.32686,260.516 70.552138,261.69405 c -11.470455,2.86872 -17.88489,7.25421 -13.772286,14.79799 -0.658078,6.51851 2.240226,9.48065 5.420978,12.16056 l 0.146561,5.42097 -10.549056,0.2929 -28.423493,40.43761 -14.9443293,-13.47919 -5.8604384,-0.29303 0,-4.98145 c 7.7114657,-4.10396 10.2970777,-9.91658 5.1278558,-18.31415 l 2.3443089,-3.80925 -6.5930211,-5.27441 -4.8349563,1.17204 -0.146561,-2.49065 -2.7837694,2.49065 -2.0511868,-3.80925 0.293122,5.86044 -5.1280784,-0.14657 c -2.775318,4.41307 -3.204326,8.72872 -2.490647,14.21175 0.999906,6.93767 4.5204837,8.83352 8.204747,10.40243 l -0.293122,4.98145 -5.567539,0 z"
         style="fill:#000080;fill-opacity:1;stroke:#ffffff;stroke-width:0.22239908999999999px;stroke-linecap:butt;stroke-linejoin:miter;stroke-opacity:1" />
      <path
         inkscape:connector-curvature="0"
         id="path3363"
         d="m 319.86123,351.43214 0,-11.06435 -0.21544,0.1807 -16.70077,-25.93729 -6.74149,-0.5838 0.29192,-5.85882 4.69122,-3.22478 c 6.82854,0.12074 6.24547,-6.58133 3.37074,-15.38726 -0.31402,-5.56065 1.63502,-6.58017 4.83022,-5.12212 l 2.49503,4.83024 0.72976,15.09534 c 2.0549,-5.5606 6.21476,-10.48561 7.24881,-16.3533 l 0,-5.22637 c -0.18824,-1.07139 -0.48503,-2.17614 -0.9452,-3.32903 -3.38689,-6.62062 -5.5662,-15.12176 -15.67913,-11.27981 -3.79636,2.29293 -6.78333,5.18901 -7.47121,9.81336 -0.70034,1.93687 -2.18507,3.0937 -4.83718,3.07884 -6.16668,-0.73905 -11.91686,0.23501 -15.3803,10.696 1.17847,6.90282 3.37882,8.6878 5.7129,9.81336 2.29536,4.13974 4.59203,5.37538 6.88741,6.44957 l -0.29884,6.44261 -6.29669,0.14597 -3.95453,3.22478 -10.55005,16.70077 -0.4726,-0.83399 0,16.77725 2.23095,1.20233 13.47598,-19.92558 3.51669,12.89221 -15.82507,55.96811 10.55003,3.51671 8.49983,-29.0092 6.74147,-0.29188 7.90907,29.00916 10.84195,-2.64099 -15.82507,-56.26001 3.22478,-12.01651 14.94242,21.10011 3.00239,-2.59233 z"
         style="fill:#000080;fill-opacity:1;stroke:#ffffff;stroke-width:0.22239908999999999px;stroke-linecap:butt;stroke-linejoin:miter;stroke-opacity:1" />
      <path
         inkscape:connector-curvature="0"
         id="path3372"
         d="m -147.582,274.94396 0,11.38405 2.50892,2.13363 23.73417,-30.17675 0,29.88488 -11.13386,51.57573 15.52624,3.80858 11.72461,-50.98499 5.858819,0 9.667399,50.98499 15.533197,-2.05025 -9.083624,-56.55885 -0.583797,-22.26771 12.600309,22.56655 5.386217,2.89815 0,-16.77726 -20.773454,-36.66805 -9.229562,-0.44479 0,-5.56692 c 4.632106,-2.43394 5.702024,-6.51091 5.27504,-11.27982 l 4.53832,-0.72973 c -3.694516,-8.44783 -7.729858,-15.83553 -14.504604,-14.65748 -11.47045,2.8687 -17.88048,7.25964 -13.76788,14.80342 -0.65808,6.51851 2.2402,9.4756 5.42098,12.15551 l 0.14594,5.42098 -10.55004,0.29883 -28.29334,40.2473 z"
         style="fill:#000080;fill-opacity:1;stroke:#ffffff;stroke-width:0.22239908999999999px;stroke-linecap:butt;stroke-linejoin:miter;stroke-opacity:1" />
      <path
         style="fill:#000080;fill-opacity:1;stroke:#ffffff;stroke-width:0.22239908999999999px;stroke-linecap:butt;stroke-linejoin:miter;stroke-opacity:1"
         d="m -46.365198,262.57319 -22.856088,18.75365 4.102351,5.86052 18.167715,-13.47918 0.586022,14.65129 -4.688395,37.5073 11.427977,1.46512 4.688395,-35.74914 4.688395,36.62822 12.307121,-2.3442 -5.274417,-35.74914 0.586022,-16.40945 15.8232504,13.47918 23.7350976,-30.18167 0,29.88864 -11.1348548,51.57255 15.5303508,3.80934 11.720877,-50.9865 5.860661,0 9.669912,50.9865 15.530351,-2.05119 -9.083891,-56.55397 -0.586021,-22.26998 12.60002,22.56299 7.618726,4.10237 13.479164,-19.92576 3.516352,12.89315 -15.823473,55.96793 10.549056,3.5163 8.497647,-29.00955 6.739585,-0.29304 7.91184,29.00956 10.84196,-2.63723 -15.82347,-56.26096 3.22323,-12.01405 14.94433,21.09785 19.33982,-16.70246 1.75807,14.35826 -3.51636,16.99549 -9.66991,23.7351 7.32583,2.63723 10.25571,-24.9072 7.91185,0.29303 7.91162,24.90721 8.20475,-2.93027 -13.18627,-41.02362 2.05119,-13.18616 16.4095,15.82339 5.27441,-5.27446 -22.56283,-22.56299 -4.10237,0.29303 -0.29313,-4.10237 c 6.92529,-2.6881 7.58848,-8.34235 7.17927,-14.5048 5.54419,0.51285 5.4857,1.45649 6.15356,2.34431 l -1.46516,10.54885 2.9301,11.13499 2.05119,-10.40243 c 2.03406,-2.9106 3.32509,-6.77628 2.63721,-13.18604 -0.77528,-3.56995 -1.43025,-7.23642 -6.007,-7.76529 l -7.6185,4.6884 c -6.95353,-8.33552 -13.65553,-6.87236 -20.21897,0 -4.55118,-3.34511 -9.23891,-7.13812 -11.13486,-1.75807 -2.10523,4.28897 -1.77652,8.0911 -2.05118,12.01398 2.49954,5.55949 4.14173,10.94751 4.68839,16.11642 1.48096,-4.45519 3.13338,-8.85333 2.34431,-14.06523 l -0.87914,-7.91161 5.71387,-1.90484 c -0.8867,7.48364 1.03972,12.77911 7.17927,14.79787 l 0.14656,3.95586 -4.98152,-0.29303 -16.99551,14.35826 -16.7024,-25.93282 -6.73958,-0.58602 0.2929,-5.86044 4.68839,-3.22323 c 6.82855,0.12076 6.24453,-6.57812 3.3698,-15.38401 -0.31403,-5.56065 1.63974,-6.58591 4.83495,-5.12786 l 2.49087,4.83496 0.73236,15.09066 c 2.97148,-8.04083 10.35023,-14.75973 6.30012,-24.90714 -3.38691,-6.6206 -5.56398,-15.12336 -15.67691,-11.28141 -3.79635,2.29293 -6.78428,5.1919 -7.47216,9.81625 -0.70034,1.93687 -2.18285,3.09179 -4.834959,3.07689 -6.166682,-0.73903 -11.920369,0.23441 -15.38379,10.69539 1.178492,6.90283 3.380021,8.69069 5.7141,9.81625 2.295381,4.13974 4.590762,5.3725 6.886143,6.44669 l -0.293122,6.44646 -6.300122,0.14656 -3.955813,3.22332 -10.548833,16.70248 -21.244451,-37.50734 -9.230229,-0.43946 0,-5.56754 c 4.632128,-2.43393 5.701423,-6.51251 5.274417,-11.28142 l 4.541834,-0.73258 c -3.694494,-8.44783 -7.729925,-15.82948 -14.504646,-14.65143 -11.470456,2.86873 -17.88489,7.25422 -13.772287,14.79799 -0.658078,6.51852 2.240227,9.48065 5.420978,12.16056 l 0.146561,5.42098 -10.549056,0.2929 -28.423493,40.4376 -14.944329,-13.47918 -5.860439,-0.29304 0,-4.98145 c 7.711466,-4.10395 10.297078,-9.91657 5.127856,-18.31414 l 2.344309,-3.80925 -6.593021,-5.27442 -4.834956,1.17205 -0.146561,-2.49065 -2.78377,2.49065 -2.051187,-3.80926 0.293122,5.86044 -5.128078,-0.14656 c -2.775318,4.41307 -3.204326,8.72872 -2.490647,14.21175 0.999906,6.93767 4.520484,8.83351 8.204747,10.40243 l -0.293122,4.98145 -5.567539,0 z"
         id="path3335"
         inkscape:connector-curvature="0"
         sodipodi:nodetypes="cccccccccccccccccccccccccccccccccccccccccccccccccccccccccccccccccccccccccccccccccccccccccccccccccccccccccccccccccccccc" />
      <path
         style="fill:#000080;fill-opacity:1;stroke:#ffffff;stroke-width:0.22239908999999999px;stroke-linecap:butt;stroke-linejoin:miter;stroke-opacity:1"
         d="m -13.546298,323.52257 -22.856088,18.75365 4.102351,5.86053 18.167715,-13.47919 0.586022,14.6513 -4.688395,37.50729 11.4279768,1.46512 4.6883952,-35.74914 4.6883953,36.62822 12.3071207,-2.3442 -5.2744167,-35.74914 0.5860217,-16.40945 15.82325,13.47919 23.735098,-30.18167 0,29.88863 -11.134855,51.57255 15.530351,3.80934 11.720877,-50.9865 5.860661,0 9.669912,50.9865 15.530351,-2.05119 -9.083891,-56.55397 -0.586021,-22.26998 12.60002,22.56299 7.618727,4.10237 13.47916,-19.92575 3.51635,12.89314 -15.82347,55.96793 10.54906,3.51631 8.49764,-29.00956 6.73959,-0.29303 7.91184,29.00955 10.84196,-2.63723 -15.82347,-56.26096 3.22323,-12.01404 14.94433,21.09784 19.33982,-16.70246 1.75807,14.35826 -3.51636,16.9955 -9.66991,23.73509 7.32583,2.63724 10.25571,-24.90721 7.91185,0.29303 7.91162,24.90721 8.20475,-2.93027 -13.18627,-41.02362 2.05119,-13.18615 16.4095,15.82338 5.27441,-5.27446 -22.56283,-22.56299 -4.10237,0.29303 -0.29313,-4.10237 c 6.92529,-2.68809 7.58848,-8.34234 7.17927,-14.5048 5.54419,0.51285 5.4857,1.45649 6.15356,2.34431 l -1.46516,10.54885 2.9301,11.13499 2.05119,-10.40243 c 2.03406,-2.9106 3.32509,-6.77627 2.63721,-13.18604 -0.77528,-3.56995 -1.43025,-7.23642 -6.007,-7.76528 l -7.6185,4.68839 c -6.95353,-8.33552 -13.65553,-6.87235 -20.21897,0 -4.55118,-3.3451 -9.23891,-7.13812 -11.13486,-1.75806 -2.10523,4.28896 -1.77652,8.0911 -2.05118,12.01397 2.49954,5.55949 4.14173,10.94751 4.68839,16.11642 1.48096,-4.45519 3.13338,-8.85333 2.34431,-14.06523 l -0.87914,-7.9116 5.71387,-1.90485 c -0.8867,7.48364 1.03972,12.77912 7.17927,14.79788 l 0.14656,3.95585 -4.98152,-0.29303 -16.99551,14.35826 -16.7024,-25.93282 -6.73958,-0.58602 0.2929,-5.86044 4.68839,-3.22323 c 6.82855,0.12076 6.24453,-6.57812 3.3698,-15.38401 -0.31403,-5.56065 1.63974,-6.58591 4.83495,-5.12786 l 2.49087,4.83496 0.73236,15.09067 c 2.97148,-8.04084 10.35023,-14.75974 6.30012,-24.90714 -3.38691,-6.6206 -5.56398,-15.12337 -15.67691,-11.28142 -3.79635,2.29293 -6.78428,5.19191 -7.47216,9.81625 -0.70034,1.93687 -2.18285,3.09179 -4.83496,3.07689 -6.16668,-0.73903 -11.92037,0.23441 -15.38379,10.6954 1.17849,6.90282 3.38002,8.69069 5.7141,9.81625 2.29538,4.13973 4.59076,5.37249 6.88614,6.44668 l -0.29312,6.44646 -6.30012,0.14656 -3.95581,3.22332 -10.54884,16.70248 -21.244447,-37.50734 -9.230229,-0.43946 0,-5.56754 c 4.632128,-2.43393 5.701423,-6.51251 5.274417,-11.28141 l 4.541834,-0.73259 C 81.362291,267.89765 77.32686,260.516 70.552138,261.69405 c -11.470455,2.86872 -17.88489,7.25421 -13.772286,14.79799 -0.658078,6.51851 2.240226,9.48065 5.420978,12.16056 l 0.146561,5.42097 -10.549056,0.2929 -28.423493,40.43761 -14.9443293,-13.47919 -5.8604384,-0.29303 0,-4.98145 c 7.7114657,-4.10396 10.2970777,-9.91658 5.1278558,-18.31415 l 2.3443089,-3.80925 -6.5930211,-5.27441 -4.8349563,1.17204 -0.146561,-2.49065 -2.7837694,2.49065 -2.0511868,-3.80925 0.293122,5.86044 -5.1280784,-0.14657 c -2.775318,4.41307 -3.204326,8.72872 -2.490647,14.21175 0.999906,6.93767 4.5204837,8.83352 8.204747,10.40243 l -0.293122,4.98145 -5.567539,0 z"
         id="path3337"
         inkscape:connector-curvature="0"
         sodipodi:nodetypes="cccccccccccccccccccccccccccccccccccccccccccccccccccccccccccccccccccccccccccccccccccccccccccccccccccccccccccccccccccccc" />
      <path
         inkscape:connector-curvature="0"
         id="path3359"
         d="m -138.55385,347.81496 2.23093,1.20233 13.47601,-19.92558 3.51668,12.89221 -15.82509,55.96811 10.55008,3.51671 8.4998,-29.00921 6.74147,-0.29187 7.90907,29.00916 10.841957,-2.64099 -15.825097,-56.26001 3.22479,-12.01651 14.942459,21.10011 19.34176,-16.70077 1.758353,14.35864 -3.516707,16.99267 -9.6674,23.73416 7.32527,2.64099 10.258158,-24.90869 7.909068,0.29189 7.909068,24.9087 8.207905,-2.93289 -13.184085,-41.01873 2.050253,-13.19104 16.408871,15.82507 5.27504,-5.27502 -22.566569,-22.5596 -4.100483,0.29189 -0.291899,-4.10048 c 6.925285,-2.68809 7.588546,-8.34214 7.17931,-14.5046 5.544209,0.51287 5.482871,1.45433 6.150736,2.34215 l -1.466433,10.55006 2.932866,11.13385 2.050252,-10.40412 c 2.034062,-2.91058 3.32887,-6.77432 2.640989,-13.18408 -0.775283,-3.56995 -1.434985,-7.2412 -6.011714,-7.77007 l -7.617169,4.69122 c -6.953552,-8.3355 -13.654036,-6.87233 -20.217478,0 -4.551175,-3.34508 -9.237902,-7.13839 -11.133854,-1.75833 -2.10523,4.28896 -1.782529,8.09363 -2.057192,12.01649 2.499543,5.55949 4.144563,10.94808 4.691242,16.11699 1.480955,-4.45518 3.131201,-8.85484 2.342129,-14.06674 l -0.875696,-7.90907 5.712876,-1.91123 c -0.886705,7.48364 1.039761,12.78466 7.17931,14.80342 l 0.14596,3.95454 -4.98314,-0.29189 -16.99267,14.35864 -16.700796,-25.9373 -6.74145,-0.5838 0.29188,-5.85881 4.69124,-3.22479 c 6.828543,0.12074 6.245458,-6.58134 3.37073,-15.38726 -0.31401,-5.56064 1.635031,-6.58016 4.830238,-5.12211 l 2.495051,4.83024 0.729736,15.09534 c 2.971474,-8.04087 10.353723,-14.76132 6.303635,-24.9087 -3.386915,-6.62062 -5.566226,-15.12176 -15.67914,-11.27982 -3.79637,2.29294 -6.78335,5.18902 -7.47123,9.81336 -0.70033,1.93688 -2.18507,3.09373 -4.83718,3.07885 -6.16668,-0.73905 -11.91685,0.23501 -15.38027,10.696 1.17847,6.90282 3.37877,8.68779 5.71285,9.81336 2.29538,4.13973 4.59205,5.37538 6.88744,6.44957 l -0.29886,6.44261 -6.29666,0.14596 -3.95454,3.22479 -10.55006,16.70077 -0.4726,-0.834 0,16.77726 z"
         style="fill:#000080;fill-opacity:1;stroke:#ffffff;stroke-width:0.22239908999999999px;stroke-linecap:butt;stroke-linejoin:miter;stroke-opacity:1" />
      <path
         inkscape:connector-curvature="0"
         id="path3377"
         d="m 267.64788,337.93294 -0.13206,0.18766 -14.94241,-13.48294 -5.85884,-0.29192 0,-4.97618 c 7.71144,-4.10396 10.2983,-9.92254 5.12908,-18.32013 l 2.34215,-3.80858 -6.59553,-5.27502 -4.83022,1.17456 -0.15293,-2.48812 -2.77998,2.48812 -2.05023,-3.80859 0.29189,5.85882 -5.12907,-0.14596 c -2.7753,4.41311 -3.2018,8.72967 -2.48809,14.2127 0.9999,6.93767 4.5167,8.83518 8.20096,10.40412 l -0.2919,4.97618 -5.56694,0 -2.19619,2.20313 -22.85844,18.75102 4.10048,5.85882 18.17417,-13.47599 0.58379,14.65054 -4.69122,37.50901 11.43272,1.46643 4.68426,-35.75065 4.69124,36.62635 12.30841,-2.34213 -5.27504,-35.75065 0.5838,-16.4089 13.31614,11.34236 0,-11.38406 z"
         style="fill:#000080;fill-opacity:1;stroke:#ffffff;stroke-width:0.22239908999999999px;stroke-linecap:butt;stroke-linejoin:miter;stroke-opacity:1" />
      <rect
         transform="matrix(0,1,-1,0,0,0)"
         ry="11.149299"
         y="-279.82642"
         x="376.24207"
         height="22.298599"
         width="114.06586"
         id="rect3419"
         style="fill:#000080;fill-opacity:1;stroke:none" />
      <rect
         style="fill:#000080;fill-opacity:1;stroke:none"
         id="rect3421"
         width="114.06586"
         height="22.298599"
         x="376.24207"
         y="-320.99304"
         ry="11.149299"
         transform="matrix(0,1,-1,0,0,0)" />
      <rect
         transform="matrix(0,1,-1,0,0,0)"
         ry="11.149299"
         y="125.5783"
         x="376.24207"
         height="22.298599"
         width="114.06586"
         id="rect3427"
         style="fill:#000080;fill-opacity:1;stroke:none" />
      <rect
         style="fill:#000080;fill-opacity:1;stroke:none"
         id="rect3429"
         width="114.06586"
         height="22.298599"
         x="376.24207"
         y="86.1269"
         ry="11.149299"
         transform="matrix(0,1,-1,0,0,0)" />
    </g>
    <g
       transform="matrix(0.22239909,0,0,0.22239909,-624.48923,2454.1714)"
       id="g3479"
       style="fill:#000080">
      <path
         sodipodi:nodetypes="cccccccccccccccccccccccccccccccccccccccccccccccccccccccccccccccccccccccccccccccccccccccccccccccccccccccccccccccccccccc"
         inkscape:connector-curvature="0"
         id="path3349"
         d="m 4609.6474,-7668.5877 -102.7706,84.3243 18.4459,26.3514 81.6897,-60.6081 2.635,65.8784 -21.081,168.6486 51.385,6.5878 21.081,-160.7432 21.081,164.6959 55.338,-10.5405 -23.716,-160.7432 2.635,-73.7838 71.148,60.6081 106.723,-135.7095 0,134.3919 -50.067,231.8919 69.831,17.1284 52.702,-229.2568 26.352,0 43.48,229.2568 69.831,-9.223 -40.845,-254.2905 -2.635,-100.1352 56.655,101.4527 34.257,18.446 60.608,-89.5946 15.811,57.973 -71.149,251.6554 47.433,15.8108 38.209,-130.4392 30.304,-1.3176 35.575,130.4392 48.75,-11.8581 -71.149,-252.973 14.493,-54.0202 67.196,94.8648 86.96,-75.1013 7.905,64.5608 -15.811,76.4189 -43.48,106.723 32.94,11.8581 46.114,-111.9933 35.575,1.3176 35.574,111.9933 36.892,-13.1757 -59.291,-184.4595 9.223,-59.2905 73.784,71.1486 23.716,-23.7162 -101.452,-101.4527 -18.446,1.3176 -1.318,-18.446 c 31.139,-12.0868 34.121,-37.5107 32.281,-65.2197 24.929,2.306 24.666,6.549 27.669,10.541 l -6.588,47.4321 13.175,50.0676 9.223,-46.7737 c 9.146,-13.0873 14.951,-30.469 11.858,-59.29 -3.486,-16.052 -6.431,-32.538 -27.01,-34.916 l -34.256,21.081 c -31.266,-37.48 -61.401,-30.901 -90.913,0 -20.464,-15.041 -41.542,-32.096 -50.067,-7.905 -9.466,19.285 -7.988,36.381 -9.223,54.0199 11.239,24.9978 18.623,49.2246 21.081,72.4662 6.659,-20.0324 14.089,-39.8083 10.541,-63.2432 l -3.953,-35.5739 25.692,-8.565 c -3.987,33.6496 4.675,57.4603 32.281,66.5375 l 0.659,17.7872 -22.399,-1.3176 -76.419,64.5608 -75.101,-116.6049 -30.304,-2.635 1.317,-26.351 21.081,-14.493 c 30.704,0.543 28.078,-29.578 15.152,-69.173 -1.412,-25.003 7.373,-29.613 21.74,-23.057 l 11.2,21.74 3.293,67.854 c 13.361,-36.155 46.539,-66.366 28.328,-111.993 -15.229,-29.769 -25.018,-68.001 -70.49,-50.726 -17.07,10.31 -30.505,23.345 -33.598,44.138 -3.149,8.709 -9.815,13.902 -21.74,13.835 -27.728,-3.323 -53.599,1.054 -69.172,48.091 5.299,31.038 15.198,39.077 25.693,44.138 10.321,18.614 20.642,24.157 30.963,28.987 l -1.318,28.986 -28.328,0.659 -17.787,14.4934 -47.432,75.1014 -95.524,-168.6488 -41.503,-1.976 0,-25.034 c 20.828,-10.944 25.636,-29.283 23.716,-50.726 l 20.422,-3.294 c -16.612,-37.985 -34.757,-71.176 -65.219,-65.879 -51.576,12.899 -80.418,32.618 -61.926,66.538 -2.959,29.31 10.073,42.629 24.375,54.679 l 0.659,24.375 -47.433,1.317 -127.804,181.8245 -67.196,-60.6081 -26.351,-1.3176 0,-22.3987 c 34.674,-18.4531 46.3,-44.5891 23.057,-82.3481 l 10.541,-17.128 -29.645,-23.716 -21.74,5.27 -0.659,-11.199 -12.517,11.199 -9.223,-17.128 1.318,26.351 -23.058,-0.659 c -12.479,19.843 -14.408,39.248 -11.199,63.902 4.496,31.1947 20.326,39.7192 36.892,46.7737 l -1.318,22.3987 -25.034,0 z"
         style="fill:#000080;fill-opacity:1;stroke:#ffffff;stroke-width:1px;stroke-linecap:butt;stroke-linejoin:miter;stroke-opacity:1" />
      <path
         style="fill:#000080;fill-opacity:1;stroke:#ffffff;stroke-width:1px;stroke-linecap:butt;stroke-linejoin:miter;stroke-opacity:1"
         d="m 3502.8907,-7668.5877 -102.7706,84.3243 18.4459,26.3514 81.6897,-60.6081 2.635,65.8784 -21.081,168.6486 51.385,6.5878 21.081,-160.7432 21.081,164.6959 55.338,-10.5405 -23.716,-160.7432 2.635,-73.7838 71.148,60.6081 106.723,-135.7095 0,134.3919 -50.067,231.8919 69.831,17.1284 52.702,-229.2568 26.352,0 43.48,229.2568 69.831,-9.223 -40.845,-254.2905 -2.635,-100.1352 56.655,101.4527 34.257,18.446 60.608,-89.5946 15.811,57.973 -71.149,251.6554 47.433,15.8108 38.209,-130.4392 30.304,-1.3176 35.575,130.4392 48.75,-11.8581 -71.149,-252.973 14.493,-54.0202 67.196,94.8648 86.96,-75.1013 7.905,64.5608 -15.811,76.4189 -43.48,106.723 32.94,11.8581 46.114,-111.9933 35.575,1.3176 35.574,111.9933 36.892,-13.1757 -59.291,-184.4595 9.223,-59.2905 73.784,71.1486 23.716,-23.7162 -101.452,-101.4527 -18.446,1.3176 -1.318,-18.446 c 31.139,-12.0868 34.121,-37.5107 32.281,-65.2197 24.929,2.306 24.666,6.549 27.669,10.541 l -6.588,47.4321 13.175,50.0676 9.223,-46.7737 c 9.146,-13.0873 14.951,-30.469 11.858,-59.29 -3.486,-16.052 -6.431,-32.538 -27.01,-34.916 l -34.256,21.081 c -31.266,-37.48 -61.401,-30.901 -90.913,0 -20.464,-15.041 -41.542,-32.096 -50.067,-7.905 -9.466,19.285 -7.988,36.381 -9.223,54.0199 11.239,24.9978 18.623,49.2246 21.081,72.4662 6.659,-20.0324 14.089,-39.8083 10.541,-63.2432 l -3.953,-35.5739 25.692,-8.565 c -3.987,33.6496 4.675,57.4603 32.281,66.5375 l 0.659,17.7872 -22.399,-1.3176 -76.419,64.5608 -75.101,-116.6049 -30.304,-2.635 1.317,-26.351 21.081,-14.493 c 30.704,0.543 28.078,-29.578 15.152,-69.173 -1.412,-25.003 7.373,-29.613 21.74,-23.057 l 11.2,21.74 3.293,67.854 c 13.361,-36.155 46.539,-66.366 28.328,-111.993 -15.229,-29.769 -25.018,-68.001 -70.49,-50.726 -17.07,10.31 -30.505,23.345 -33.598,44.138 -3.149,8.709 -9.815,13.902 -21.74,13.835 -27.728,-3.323 -53.599,1.054 -69.172,48.091 5.299,31.038 15.198,39.077 25.693,44.138 10.321,18.614 20.642,24.157 30.963,28.987 l -1.318,28.986 -28.328,0.659 -17.787,14.4934 -47.432,75.1014 -95.524,-168.6488 -41.503,-1.976 0,-25.034 c 20.828,-10.944 25.636,-29.283 23.716,-50.726 l 20.422,-3.294 c -16.612,-37.985 -34.757,-71.176 -65.219,-65.879 -51.576,12.899 -80.418,32.618 -61.926,66.538 -2.959,29.31 10.073,42.629 24.375,54.679 l 0.659,24.375 -47.433,1.317 -127.804,181.8245 -67.196,-60.6081 -26.351,-1.3176 0,-22.3987 c 34.674,-18.4531 46.3,-44.5891 23.057,-82.3481 l 10.541,-17.128 -29.645,-23.716 -21.74,5.27 -0.659,-11.199 -12.517,11.199 -9.223,-17.128 1.318,26.351 -23.058,-0.659 c -12.479,19.843 -14.408,39.248 -11.199,63.902 4.496,31.1947 20.326,39.7192 36.892,46.7737 l -1.318,22.3987 -25.034,0 z"
         id="path3347"
         inkscape:connector-curvature="0"
         sodipodi:nodetypes="cccccccccccccccccccccccccccccccccccccccccccccccccccccccccccccccccccccccccccccccccccccccccccccccccccccccccccccccccccccc" />
      <path
         sodipodi:nodetypes="cccccccccccccccccccccccccccccccccccccccccccccccccccccccccccccccccccccccccccccccccccccccccccccccccccccccccccccccccccccc"
         inkscape:connector-curvature="0"
         id="path3339"
         d="m 3355.3231,-7352.3715 -102.7706,84.3243 18.4459,26.3514 81.6897,-60.6081 2.635,65.8784 -21.081,168.6486 51.385,6.5878 21.081,-160.7432 21.081,164.6959 55.338,-10.5405 -23.716,-160.7432 2.635,-73.7838 71.148,60.6081 106.723,-135.7095 0,134.3919 -50.067,231.8919 69.831,17.1284 52.702,-229.2568 26.352,0 43.48,229.2568 69.831,-9.223 -40.845,-254.2905 -2.635,-100.1352 56.655,101.4527 34.257,18.446 60.608,-89.5946 15.811,57.973 -71.149,251.6554 47.433,15.8108 38.209,-130.4392 30.304,-1.3176 35.575,130.4392 48.75,-11.8581 -71.149,-252.973 14.493,-54.0202 67.196,94.8648 86.96,-75.1013 7.905,64.5608 -15.811,76.4189 -43.48,106.723 32.94,11.8581 46.114,-111.9933 35.575,1.3176 35.574,111.9933 36.892,-13.1757 -59.291,-184.4595 9.223,-59.2905 73.784,71.1486 23.716,-23.7162 -101.452,-101.4527 -18.446,1.3176 -1.318,-18.446 c 31.139,-12.0868 34.121,-37.5107 32.281,-65.2197 24.929,2.306 24.666,6.549 27.669,10.541 l -6.588,47.4321 13.175,50.0676 9.223,-46.7737 c 9.146,-13.0873 14.951,-30.469 11.858,-59.29 -3.486,-16.052 -6.431,-32.538 -27.01,-34.916 l -34.256,21.081 c -31.266,-37.48 -61.401,-30.901 -90.913,0 -20.464,-15.041 -41.542,-32.096 -50.067,-7.905 -9.466,19.285 -7.988,36.381 -9.223,54.0199 11.239,24.9978 18.623,49.2246 21.081,72.4662 6.659,-20.0324 14.089,-39.8083 10.541,-63.2432 l -3.953,-35.5739 25.692,-8.565 c -3.987,33.6496 4.675,57.4603 32.281,66.5375 l 0.659,17.7872 -22.399,-1.3176 -76.419,64.5608 -75.101,-116.6049 -30.304,-2.635 1.317,-26.351 21.081,-14.493 c 30.704,0.543 28.078,-29.578 15.152,-69.173 -1.412,-25.003 7.373,-29.613 21.74,-23.057 l 11.2,21.74 3.293,67.854 c 13.361,-36.155 46.539,-66.366 28.328,-111.993 -15.229,-29.769 -25.018,-68.001 -70.49,-50.726 -17.07,10.31 -30.505,23.345 -33.598,44.138 -3.149,8.709 -9.815,13.902 -21.74,13.835 -27.728,-3.323 -53.599,1.054 -69.172,48.091 5.299,31.038 15.198,39.077 25.693,44.138 10.321,18.614 20.642,24.157 30.963,28.987 l -1.318,28.986 -28.328,0.659 -17.787,14.4934 -47.432,75.1014 -95.524,-168.6488 -41.503,-1.976 0,-25.034 c 20.828,-10.944 25.636,-29.283 23.716,-50.726 l 20.422,-3.294 c -16.612,-37.985 -34.757,-71.176 -65.219,-65.879 -51.576,12.899 -80.418,32.618 -61.926,66.538 -2.959,29.31 10.073,42.629 24.375,54.679 l 0.659,24.375 -47.433,1.317 -127.804,181.8245 -67.196,-60.6081 -26.351,-1.3176 0,-22.3987 c 34.674,-18.4531 46.3,-44.5891 23.057,-82.3481 l 10.541,-17.128 -29.645,-23.716 -21.74,5.27 -0.659,-11.199 -12.517,11.199 -9.223,-17.128 1.318,26.351 -23.058,-0.659 c -12.479,19.843 -14.408,39.248 -11.199,63.902 4.496,31.1947 20.326,39.7192 36.892,46.7737 l -1.318,22.3987 -25.034,0 z"
         style="fill:#000080;fill-opacity:1;stroke:#ffffff;stroke-width:1px;stroke-linecap:butt;stroke-linejoin:miter;stroke-opacity:1" />
      <path
         sodipodi:nodetypes="cccccccccccccccccccccccccccccccccccccccccccccccccccccccccccccccccccccccccccccccccccccccccccccccccccccccccccccccccccccc"
         inkscape:connector-curvature="0"
         id="path3341"
         d="m 3502.8907,-7078.3174 -102.7706,84.3243 18.4459,26.3514 81.6897,-60.6081 2.635,65.8784 -21.081,168.6486 51.385,6.5878 21.081,-160.7432 21.081,164.6959 55.338,-10.5405 -23.716,-160.7432 2.635,-73.7838 71.148,60.6081 106.723,-135.7095 0,134.3919 -50.067,231.8919 69.831,17.1284 52.702,-229.2568 26.352,0 43.48,229.2568 69.831,-9.223 -40.845,-254.2905 -2.635,-100.1352 56.655,101.4527 34.257,18.446 60.608,-89.5946 15.811,57.973 -71.149,251.6554 47.433,15.8108 38.209,-130.4392 30.304,-1.3176 35.575,130.4392 48.75,-11.8581 -71.149,-252.973 14.493,-54.0202 67.196,94.8648 86.96,-75.1013 7.905,64.5608 -15.811,76.4189 -43.48,106.723 32.94,11.8581 46.114,-111.9933 35.575,1.3176 35.574,111.9933 36.892,-13.1757 -59.291,-184.4595 9.223,-59.2905 73.784,71.1486 23.716,-23.7162 -101.452,-101.4527 -18.446,1.3176 -1.318,-18.446 c 31.139,-12.0868 34.121,-37.5107 32.281,-65.2197 24.929,2.306 24.666,6.549 27.669,10.541 l -6.588,47.4321 13.175,50.0676 9.223,-46.7737 c 9.146,-13.0873 14.951,-30.469 11.858,-59.29 -3.486,-16.052 -6.431,-32.538 -27.01,-34.916 l -34.256,21.081 c -31.266,-37.48 -61.401,-30.901 -90.913,0 -20.464,-15.041 -41.542,-32.096 -50.067,-7.905 -9.466,19.285 -7.988,36.381 -9.223,54.0199 11.239,24.9978 18.623,49.2246 21.081,72.4662 6.659,-20.0324 14.089,-39.8083 10.541,-63.2432 l -3.953,-35.5739 25.692,-8.565 c -3.987,33.6496 4.675,57.4603 32.281,66.5375 l 0.659,17.7872 -22.399,-1.3176 -76.419,64.5608 -75.101,-116.6049 -30.304,-2.635 1.317,-26.351 21.081,-14.493 c 30.704,0.543 28.078,-29.578 15.152,-69.173 -1.412,-25.003 7.373,-29.613 21.74,-23.057 l 11.2,21.74 3.293,67.854 c 13.361,-36.155 46.539,-66.366 28.328,-111.993 -15.229,-29.769 -25.018,-68.001 -70.49,-50.726 -17.07,10.31 -30.505,23.345 -33.598,44.138 -3.149,8.709 -9.815,13.902 -21.74,13.835 -27.728,-3.323 -53.599,1.054 -69.172,48.091 5.299,31.038 15.198,39.077 25.693,44.138 10.321,18.614 20.642,24.157 30.963,28.987 l -1.318,28.986 -28.328,0.659 -17.787,14.4934 -47.432,75.1014 -95.524,-168.6488 -41.503,-1.976 0,-25.034 c 20.828,-10.944 25.636,-29.283 23.716,-50.726 l 20.422,-3.294 c -16.612,-37.985 -34.757,-71.176 -65.219,-65.879 -51.576,12.899 -80.418,32.618 -61.926,66.538 -2.959,29.31 10.073,42.629 24.375,54.679 l 0.659,24.375 -47.433,1.317 -127.804,181.8245 -67.196,-60.6081 -26.351,-1.3176 0,-22.3987 c 34.674,-18.4531 46.3,-44.5891 23.057,-82.3481 l 10.541,-17.128 -29.645,-23.716 -21.74,5.27 -0.659,-11.199 -12.517,11.199 -9.223,-17.128 1.318,26.351 -23.058,-0.659 c -12.479,19.843 -14.408,39.248 -11.199,63.902 4.496,31.1947 20.326,39.7192 36.892,46.7737 l -1.318,22.3987 -25.034,0 z"
         style="fill:#000080;fill-opacity:1;stroke:#ffffff;stroke-width:1px;stroke-linecap:butt;stroke-linejoin:miter;stroke-opacity:1" />
      <path
         style="fill:#000080;fill-opacity:1;stroke:#ffffff;stroke-width:1px;stroke-linecap:butt;stroke-linejoin:miter;stroke-opacity:1"
         d="m 4451.5393,-7352.3715 -102.7706,84.3243 18.4459,26.3514 81.6897,-60.6081 2.635,65.8784 -21.081,168.6486 51.385,6.5878 21.081,-160.7432 21.081,164.6959 55.338,-10.5405 -23.716,-160.7432 2.635,-73.7838 71.148,60.6081 106.723,-135.7095 0,134.3919 -50.067,231.8919 69.831,17.1284 52.702,-229.2568 26.352,0 43.48,229.2568 69.831,-9.223 -40.845,-254.2905 -2.635,-100.1352 56.655,101.4527 34.257,18.446 60.608,-89.5946 15.811,57.973 -71.149,251.6554 47.433,15.8108 38.209,-130.4392 30.304,-1.3176 35.575,130.4392 48.75,-11.8581 -71.149,-252.973 14.493,-54.0202 67.196,94.8648 86.96,-75.1013 7.905,64.5608 -15.811,76.4189 -43.48,106.723 32.94,11.8581 46.114,-111.9933 35.575,1.3176 35.574,111.9933 36.892,-13.1757 -59.291,-184.4595 9.223,-59.2905 73.784,71.1486 23.716,-23.7162 -101.452,-101.4527 -18.446,1.3176 -1.318,-18.446 c 31.139,-12.0868 34.121,-37.5107 32.281,-65.2197 24.929,2.306 24.666,6.549 27.669,10.541 l -6.588,47.4321 13.175,50.0676 9.223,-46.7737 c 9.146,-13.0873 14.951,-30.469 11.858,-59.29 -3.486,-16.052 -6.431,-32.538 -27.01,-34.916 l -34.256,21.081 c -31.266,-37.48 -61.401,-30.901 -90.913,0 -20.464,-15.041 -41.542,-32.096 -50.067,-7.905 -9.466,19.285 -7.988,36.381 -9.223,54.0199 11.239,24.9978 18.623,49.2246 21.081,72.4662 6.659,-20.0324 14.089,-39.8083 10.541,-63.2432 l -3.953,-35.5739 25.692,-8.565 c -3.987,33.6496 4.675,57.4603 32.281,66.5375 l 0.659,17.7872 -22.399,-1.3176 -76.419,64.5608 -75.101,-116.6049 -30.304,-2.635 1.317,-26.351 21.081,-14.493 c 30.704,0.543 28.078,-29.578 15.152,-69.173 -1.412,-25.003 7.373,-29.613 21.74,-23.057 l 11.2,21.74 3.293,67.854 c 13.361,-36.155 46.539,-66.366 28.328,-111.993 -15.229,-29.769 -25.018,-68.001 -70.49,-50.726 -17.07,10.31 -30.505,23.345 -33.598,44.138 -3.149,8.709 -9.815,13.902 -21.74,13.835 -27.728,-3.323 -53.599,1.054 -69.172,48.091 5.299,31.038 15.198,39.077 25.693,44.138 10.321,18.614 20.642,24.157 30.963,28.987 l -1.318,28.986 -28.328,0.659 -17.787,14.4934 -47.432,75.1014 -95.524,-168.6488 -41.503,-1.976 0,-25.034 c 20.828,-10.944 25.636,-29.283 23.716,-50.726 l 20.422,-3.294 c -16.612,-37.985 -34.757,-71.176 -65.219,-65.879 -51.576,12.899 -80.418,32.618 -61.926,66.538 -2.959,29.31 10.073,42.629 24.375,54.679 l 0.659,24.375 -47.433,1.317 -127.804,181.8245 -67.196,-60.6081 -26.351,-1.3176 0,-22.3987 c 34.674,-18.4531 46.3,-44.5891 23.057,-82.3481 l 10.541,-17.128 -29.645,-23.716 -21.74,5.27 -0.659,-11.199 -12.517,11.199 -9.223,-17.128 1.318,26.351 -23.058,-0.659 c -12.479,19.843 -14.408,39.248 -11.199,63.902 4.496,31.1947 20.326,39.7192 36.892,46.7737 l -1.318,22.3987 -25.034,0 z"
         id="path3343"
         inkscape:connector-curvature="0"
         sodipodi:nodetypes="cccccccccccccccccccccccccccccccccccccccccccccccccccccccccccccccccccccccccccccccccccccccccccccccccccccccccccccccccccccc" />
      <path
         style="fill:#000080;fill-opacity:1;stroke:#ffffff;stroke-width:1px;stroke-linecap:butt;stroke-linejoin:miter;stroke-opacity:1"
         d="m 5597.4223,-7588.1903 0,51.1875 11.2812,9.5937 106.7188,-135.6874 0,134.375 -50.0625,231.9062 69.8125,17.125 52.7188,-229.25 26.3437,0 43.4687,229.25 69.8438,-9.2188 -40.8438,-254.3124 -2.625,-100.125 56.6563,101.4687 24.2187,13.0313 0,-75.4376 -93.4062,-164.875 -41.5,-2 0,-25.0312 c 20.8279,-10.944 25.6387,-29.2758 23.7188,-50.7188 l 20.4062,-3.2812 c -16.6121,-37.985 -34.7567,-71.2032 -65.2188,-65.9062 -51.576,12.8989 -80.3982,32.6424 -61.9062,66.5624 -2.959,29.31 10.0729,42.6063 24.375,54.6563 l 0.6562,24.375 -47.4374,1.3437 -127.2188,180.9688 z"
         id="path3405"
         inkscape:connector-curvature="0" />
      <path
         style="fill:#000080;fill-opacity:1;stroke:#ffffff;stroke-width:1px;stroke-linecap:butt;stroke-linejoin:miter;stroke-opacity:1"
         d="m 4609.6474,-7078.3174 -102.7706,84.3243 18.4459,26.3514 81.6897,-60.6081 2.635,65.8784 -21.081,168.6486 51.385,6.5878 21.081,-160.7432 21.081,164.6959 55.338,-10.5405 -23.716,-160.7432 2.635,-73.7838 71.148,60.6081 106.723,-135.7095 0,134.3919 -50.067,231.8919 69.831,17.1284 52.702,-229.2568 26.352,0 43.48,229.2568 69.831,-9.223 -40.845,-254.2905 -2.635,-100.1352 56.655,101.4527 34.257,18.446 60.608,-89.5946 15.811,57.973 -71.149,251.6554 47.433,15.8108 38.209,-130.4392 30.304,-1.3176 35.575,130.4392 48.75,-11.8581 -71.149,-252.973 14.493,-54.0202 67.196,94.8648 86.96,-75.1013 7.905,64.5608 -15.811,76.4189 -43.48,106.723 32.94,11.8581 46.114,-111.9933 35.575,1.3176 35.574,111.9933 36.892,-13.1757 -59.291,-184.4595 9.223,-59.2905 73.784,71.1486 23.716,-23.7162 -101.452,-101.4527 -18.446,1.3176 -1.318,-18.446 c 31.139,-12.0868 34.121,-37.5107 32.281,-65.2197 24.929,2.306 24.666,6.549 27.669,10.541 l -6.588,47.4321 13.175,50.0676 9.223,-46.7737 c 9.146,-13.0873 14.951,-30.469 11.858,-59.29 -3.486,-16.052 -6.431,-32.538 -27.01,-34.916 l -34.256,21.081 c -31.266,-37.48 -61.401,-30.901 -90.913,0 -20.464,-15.041 -41.542,-32.096 -50.067,-7.905 -9.466,19.285 -7.988,36.381 -9.223,54.0199 11.239,24.9978 18.623,49.2246 21.081,72.4662 6.659,-20.0324 14.089,-39.8083 10.541,-63.2432 l -3.953,-35.5739 25.692,-8.565 c -3.987,33.6496 4.675,57.4603 32.281,66.5375 l 0.659,17.7872 -22.399,-1.3176 -76.419,64.5608 -75.101,-116.6049 -30.304,-2.635 1.317,-26.351 21.081,-14.493 c 30.704,0.543 28.078,-29.578 15.152,-69.173 -1.412,-25.003 7.373,-29.613 21.74,-23.057 l 11.2,21.74 3.293,67.854 c 13.361,-36.155 46.539,-66.366 28.328,-111.993 -15.229,-29.769 -25.018,-68.001 -70.49,-50.726 -17.07,10.31 -30.505,23.345 -33.598,44.138 -3.149,8.709 -9.815,13.902 -21.74,13.835 -27.728,-3.323 -53.599,1.054 -69.172,48.091 5.299,31.038 15.198,39.077 25.693,44.138 10.321,18.614 20.642,24.157 30.963,28.987 l -1.318,28.986 -28.328,0.659 -17.787,14.4934 -47.432,75.1014 -95.524,-168.6488 -41.503,-1.976 0,-25.034 c 20.828,-10.944 25.636,-29.283 23.716,-50.726 l 20.422,-3.294 c -16.612,-37.985 -34.757,-71.176 -65.219,-65.879 -51.576,12.899 -80.418,32.618 -61.926,66.538 -2.959,29.31 10.073,42.629 24.375,54.679 l 0.659,24.375 -47.433,1.317 -127.804,181.8245 -67.196,-60.6081 -26.351,-1.3176 0,-22.3987 c 34.674,-18.4531 46.3,-44.5891 23.057,-82.3481 l 10.541,-17.128 -29.645,-23.716 -21.74,5.27 -0.659,-11.199 -12.517,11.199 -9.223,-17.128 1.318,26.351 -23.058,-0.659 c -12.479,19.843 -14.408,39.248 -11.199,63.902 4.496,31.1947 20.326,39.7192 36.892,46.7737 l -1.318,22.3987 -25.034,0 z"
         id="path3345"
         inkscape:connector-curvature="0"
         sodipodi:nodetypes="cccccccccccccccccccccccccccccccccccccccccccccccccccccccccccccccccccccccccccccccccccccccccccccccccccccccccccccccccccccc" />
      <path
         inkscape:connector-curvature="0"
         id="path3351"
         d="m 6084.098,-7230.0445 0,-75.438 -93.4062,-164.875 -41.5,-2 0,-25.031 c 20.8279,-10.944 25.6387,-29.276 23.7187,-50.719 l 20.4063,-3.281 c -16.6121,-37.985 -34.7568,-71.203 -65.2188,-65.906 -51.576,12.899 -80.3982,32.642 -61.9062,66.562 -2.959,29.31 10.0729,42.607 24.375,54.657 l 0.6562,24.375 -47.4375,1.343 -127.8125,181.813 -67.1875,-60.625 -26.3437,-1.313 0,-22.375 c 34.6739,-18.453 46.3054,-44.616 23.0624,-82.375 l 10.5313,-17.125 -29.6563,-23.718 -21.7187,5.281 -0.6875,-11.188 -12.5,11.188 -9.2188,-17.125 1.3126,26.344 -23.0626,-0.657 c -12.4789,19.843 -14.3965,39.253 -11.1874,63.907 4.496,31.194 20.309,39.726 36.875,46.781 l -1.3126,22.375 -25.0312,0 -9.875,9.906 -102.7812,84.313 18.4374,26.343 81.7188,-60.593 2.625,65.875 -21.0938,168.656 51.4063,6.594 21.0625,-160.75 21.0938,164.687 55.3437,-10.531 -23.7187,-160.75 2.625,-73.781 71.1562,60.593 106.7188,-135.687 0,134.375 -50.0626,231.906 69.8126,17.125 52.7187,-229.25 26.3437,0 43.4688,229.25 69.8438,-9.219 -40.8438,-254.312 -2.625,-100.125 56.6562,101.469 24.2188,13.031 z"
         style="fill:#000080;fill-opacity:1;stroke:#ffffff;stroke-width:1px;stroke-linecap:butt;stroke-linejoin:miter;stroke-opacity:1" />
      <path
         inkscape:connector-curvature="0"
         style="fill:#000080;fill-opacity:1;stroke:#ffffff;stroke-width:1px;stroke-linecap:butt;stroke-linejoin:miter;stroke-opacity:1"
         d="m 2940.8041,-6974.3589 10.0312,5.4062 60.5938,-89.5938 15.8125,57.9688 -71.1563,251.6562 47.4376,15.8126 38.2187,-130.4376 30.3125,-1.3124 35.5625,130.4374 48.75,-11.875 -71.1563,-252.9687 14.5,-54.0313 67.1876,94.875 86.9687,-75.0937 7.9063,64.5625 -15.8126,76.4062 -43.4687,106.7188 32.9375,11.875 46.125,-112 35.5625,1.3125 35.5625,112 36.9062,-13.1875 -59.2812,-184.4375 9.2188,-59.3125 73.7812,71.1562 23.7188,-23.7187 -101.4688,-101.4375 -18.4375,1.3125 -1.3125,-18.4375 c 31.139,-12.0868 34.1213,-37.5098 32.2812,-65.2188 24.9291,2.3061 24.6533,6.5393 27.6563,10.5313 l -6.5937,47.4375 13.1874,50.0625 9.2188,-46.7813 c 9.146,-13.0872 14.968,-30.4602 11.875,-59.2812 -3.486,-16.052 -6.4523,-32.5595 -27.0312,-34.9375 l -34.25,21.0937 c -31.2661,-37.4799 -61.3943,-30.9009 -90.9063,0 -20.464,-15.0409 -41.5375,-32.0972 -50.0625,-7.9062 -9.466,19.285 -8.015,36.3924 -9.25,54.0312 11.239,24.9978 18.6357,49.2272 21.0938,72.4688 6.659,-20.0324 14.0792,-39.8151 10.5312,-63.25 l -3.9375,-35.5625 25.6875,-8.5937 c -3.987,33.6496 4.6752,57.4852 32.2812,66.5624 l 0.6563,17.7813 -22.4063,-1.3125 -76.4062,64.5625 -75.0938,-116.625 -30.3124,-2.625 1.3124,-26.3437 21.0938,-14.5 c 30.704,0.5429 28.0822,-29.5925 15.1562,-69.1876 -1.4119,-25.003 7.3518,-29.5872 21.7188,-23.0312 l 11.2188,21.7188 3.2812,67.875 c 13.361,-36.1551 46.5547,-66.3731 28.3438,-112 -15.229,-29.7691 -25.0281,-67.9938 -70.5,-50.7188 -17.0701,10.31 -30.5008,23.332 -33.5938,44.125 -3.149,8.709 -9.825,13.9107 -21.75,13.8438 -27.728,-3.3231 -53.5832,1.0567 -69.1562,48.0937 5.2989,31.038 15.1924,39.064 25.6874,44.125 10.321,18.614 20.6478,24.17 30.9688,29 l -1.3438,28.9687 -28.3124,0.6563 -17.7813,14.5 -47.4375,75.0937 -2.125,-3.75 0,75.4376 z"
         id="path3403" />
      <path
         style="fill:#000080;fill-opacity:1;stroke:#ffffff;stroke-width:1px;stroke-linecap:butt;stroke-linejoin:miter;stroke-opacity:1"
         d="m 5843.3752,-6938.6824 0,-49.75 -0.9687,0.8125 -75.0937,-116.625 -30.3126,-2.625 1.3126,-26.3437 21.0937,-14.5 c 30.704,0.5429 28.0823,-29.5924 15.1563,-69.1876 -1.412,-25.003 7.3517,-29.5872 21.7187,-23.0312 l 11.2187,21.7188 3.2813,67.875 c 9.2397,-25.0028 27.9442,-47.1477 32.5937,-73.5313 l 0,-23.5 c -0.8464,-4.8174 -2.1809,-9.7848 -4.25,-14.9687 -15.2289,-29.7691 -25.028,-67.9938 -70.5,-50.7188 -17.07,10.31 -30.5007,23.332 -33.5937,44.125 -3.149,8.709 -9.825,13.9106 -21.75,13.8438 -27.728,-3.3231 -53.5832,1.0567 -69.1563,48.0937 5.2989,31.038 15.1926,39.064 25.6876,44.125 10.3209,18.614 20.6477,24.17 30.9687,29 l -1.3437,28.9687 -28.3126,0.6563 -17.7812,14.5 -47.4375,75.0937 -2.125,-3.75 0,75.4376 10.0313,5.4062 60.5937,-89.5938 15.8125,57.9688 -71.1562,251.6562 47.4374,15.8126 38.2188,-130.4376 30.3125,-1.3124 35.5625,130.4374 48.75,-11.875 -71.1562,-252.9687 14.5,-54.0313 67.1874,94.875 13.5,-11.6562 z"
         id="path3407"
         inkscape:connector-curvature="0" />
      <path
         id="path3431"
         d="m 2940.8041,-7555.7153 10.0312,5.4062 60.5938,-89.5938 15.8125,57.9688 -71.1563,251.6562 47.4376,15.8126 38.2187,-130.4376 30.3125,-1.3124 35.5625,130.4374 48.75,-11.875 -71.1563,-252.9687 14.5,-54.0313 67.1876,94.875 86.9687,-75.0937 7.9063,64.5625 -15.8126,76.4062 -43.4687,106.7188 32.9375,11.875 46.125,-112 35.5625,1.3125 35.5625,112 36.9062,-13.1875 -59.2812,-184.4375 9.2188,-59.3125 73.7812,71.1562 23.7188,-23.7187 -101.4688,-101.4375 -18.4375,1.3125 -1.3125,-18.4375 c 31.139,-12.0868 34.1213,-37.5098 32.2812,-65.2188 24.9291,2.3061 24.6533,6.5393 27.6563,10.5313 l -6.5937,47.4375 13.1874,50.0625 9.2188,-46.7813 c 9.146,-13.0872 14.968,-30.4602 11.875,-59.2812 -3.486,-16.052 -6.4523,-32.5595 -27.0312,-34.9375 l -34.25,21.0937 c -31.2661,-37.4799 -61.3943,-30.9009 -90.9063,0 -20.464,-15.0409 -41.5375,-32.0972 -50.0625,-7.9062 -9.466,19.285 -8.015,36.3924 -9.25,54.0312 11.239,24.9978 18.6357,49.2272 21.0938,72.4688 6.659,-20.0324 14.0792,-39.8151 10.5312,-63.25 l -3.9375,-35.5625 25.6875,-8.5937 c -3.987,33.6496 4.6752,57.4852 32.2812,66.5624 l 0.6563,17.7813 -22.4063,-1.3125 -76.4062,64.5625 -75.0938,-116.625 -30.3124,-2.625 1.3124,-26.3437 21.0938,-14.5 c 30.704,0.5429 28.0822,-29.5925 15.1562,-69.1876 -1.4119,-25.003 7.3518,-29.5872 21.7188,-23.0312 l 11.2188,21.7188 3.2812,67.875 c 13.361,-36.1551 46.5547,-66.3731 28.3438,-112 -15.229,-29.7691 -25.0281,-67.9938 -70.5,-50.7188 -17.0701,10.31 -30.5008,23.332 -33.5938,44.125 -3.149,8.709 -9.825,13.9107 -21.75,13.8438 -27.728,-3.3231 -53.5832,1.0567 -69.1562,48.0937 5.2989,31.038 15.1924,39.064 25.6874,44.125 10.321,18.614 20.6478,24.17 30.9688,29 l -1.3438,28.9687 -28.3124,0.6563 -17.7813,14.5 -47.4375,75.0937 -2.125,-3.75 0,75.4376 z"
         style="fill:#000080;fill-opacity:1;stroke:#ffffff;stroke-width:1px;stroke-linecap:butt;stroke-linejoin:miter;stroke-opacity:1"
         inkscape:connector-curvature="0" />
      <path
         style="fill:#000080;fill-opacity:1;stroke:#ffffff;stroke-width:1px;stroke-linecap:butt;stroke-linejoin:miter;stroke-opacity:1"
         d="m 6095.3662,-7008.252 -0.5938,0.8438 -67.1874,-60.625 -26.3438,-1.3126 0,-22.375 c 34.6739,-18.4531 46.3055,-44.6159 23.0625,-82.375 l 10.5313,-17.125 -29.6563,-23.7187 -21.7187,5.2813 -0.6876,-11.1876 -12.5,11.1876 -9.2187,-17.125 1.3125,26.3437 -23.0625,-0.6563 c -12.4789,19.8432 -14.3966,39.2523 -11.1875,63.9063 4.496,31.1947 20.309,39.7267 36.875,46.7813 l -1.3125,22.375 -25.0313,0 -9.875,9.9062 -102.7812,84.3125 18.4375,26.3437 81.7187,-60.5937 2.625,65.875 -21.0937,168.6563 51.4063,6.5937 21.0624,-160.75 21.0938,164.6875 55.3438,-10.5312 -23.7188,-160.75 2.625,-73.7813 59.875,51 0,-51.1875 z"
         id="path3433"
         inkscape:connector-curvature="0" />
      <rect
         transform="matrix(0,1,-1,0,0,0)"
         ry="62.495289"
         y="-5311.1904"
         x="-6855.8003"
         height="124.99058"
         width="639.37463"
         id="rect3331"
         style="fill:#000080;fill-opacity:1;stroke:none" />
      <rect
         style="fill:#000080;fill-opacity:1;stroke:none"
         id="rect3313"
         width="3183.7681"
         height="124.99058"
         x="2865.8293"
         y="-6680.333"
         ry="62.495289" />
      <rect
         ry="62.495289"
         y="-6401.5078"
         x="2865.8293"
         height="124.99058"
         width="3183.7681"
         id="rect3315"
         style="fill:#000080;fill-opacity:1;stroke:none" />
      <rect
         style="fill:#000080;fill-opacity:1;stroke:none"
         id="rect3317"
         width="639.37463"
         height="124.99058"
         x="-6855.8003"
         y="-3726.9993"
         ry="62.495289"
         transform="matrix(0,1,-1,0,0,0)" />
      <rect
         transform="matrix(0,1,-1,0,0,0)"
         ry="62.495289"
         y="-3952.9438"
         x="-6855.8003"
         height="124.99058"
         width="639.37463"
         id="rect3319"
         style="fill:#000080;fill-opacity:1;stroke:none" />
      <rect
         style="fill:#000080;fill-opacity:1;stroke:none"
         id="rect3321"
         width="639.37463"
         height="124.99058"
         x="-6855.8003"
         y="-4174.0811"
         ry="62.495289"
         transform="matrix(0,1,-1,0,0,0)" />
      <rect
         transform="matrix(0,1,-1,0,0,0)"
         ry="62.495289"
         y="-4404.8325"
         x="-6855.8003"
         height="124.99058"
         width="639.37463"
         id="rect3323"
         style="fill:#000080;fill-opacity:1;stroke:none" />
      <rect
         style="fill:#000080;fill-opacity:1;stroke:none"
         id="rect3325"
         width="639.37463"
         height="124.99058"
         x="-6855.8003"
         y="-4635.5845"
         ry="62.495289"
         transform="matrix(0,1,-1,0,0,0)" />
      <rect
         transform="matrix(0,1,-1,0,0,0)"
         ry="62.495289"
         y="-4859.3018"
         x="-6855.8003"
         height="124.99058"
         width="639.37463"
         id="rect3327"
         style="fill:#000080;fill-opacity:1;stroke:none" />
      <rect
         style="fill:#000080;fill-opacity:1;stroke:none"
         id="rect3329"
         width="639.37463"
         height="124.99058"
         x="-6855.8003"
         y="-5090.0532"
         ry="62.495289"
         transform="matrix(0,1,-1,0,0,0)" />
      <rect
         style="fill:#000080;fill-opacity:1;stroke:none"
         id="rect3389"
         width="639.37463"
         height="124.99058"
         x="-6855.8003"
         y="-5559.9106"
         ry="62.495289"
         transform="matrix(0,1,-1,0,0,0)" />
      <rect
         transform="matrix(0,1,-1,0,0,0)"
         ry="62.495289"
         y="-5790.6621"
         x="-6855.8003"
         height="124.99058"
         width="639.37463"
         id="rect3391"
         style="fill:#000080;fill-opacity:1;stroke:none" />
      <rect
         style="fill:#000080;fill-opacity:1;stroke:none"
         id="rect3393"
         width="639.37463"
         height="124.99058"
         x="-6855.8003"
         y="-6011.7993"
         ry="62.495289"
         transform="matrix(0,1,-1,0,0,0)" />
      <rect
         transform="matrix(0,1,-1,0,0,0)"
         ry="62.495289"
         y="-3055.606"
         x="-6855.8003"
         height="124.99058"
         width="639.37463"
         id="rect3395"
         style="fill:#000080;fill-opacity:1;stroke:none" />
      <rect
         style="fill:#000080;fill-opacity:1;stroke:none"
         id="rect3397"
         width="639.37463"
         height="124.99058"
         x="-6855.8003"
         y="-3286.3574"
         ry="62.495289"
         transform="matrix(0,1,-1,0,0,0)" />
      <rect
         transform="matrix(0,1,-1,0,0,0)"
         ry="62.495289"
         y="-3507.4946"
         x="-6855.8003"
         height="124.99058"
         width="639.37463"
         id="rect3399"
         style="fill:#000080;fill-opacity:1;stroke:none" />
    </g>
  </g>
</svg>
